# MagicaVoxel @ Ephtracy

# material
mtllib HoneyTree3.mtl
usemtl palette

# normals
vn -1 0 0
vn 1 0 0
vn 0 0 1
vn 0 0 -1
vn 0 -1 0
vn 0 1 0

# texcoords
vt 0.908203 0.5
vt 0.912109 0.5
vt 0.982422 0.5

# verts
v -3.5 6 3.5
v -3.5 6 2.5
v -3.5 6 1.5
v -3.5 6 0.5
v -3.5 7 3.5
v -3.5 7 2.5
v -3.5 7 1.5
v -3.5 7 0.5
v -3.5 8 3.5
v -3.5 8 0.5
v -2.5 4 2.5
v -2.5 4 -0.5
v -2.5 5 3.5
v -2.5 5 2.5
v -2.5 6 3.5
v -2.5 6 2.5
v -2.5 6 1.5
v -2.5 6 0.5
v -2.5 6 -0.5
v -2.5 6 -1.5
v -2.5 7 0.5
v -2.5 7 -0.5
v -2.5 8 2.5
v -2.5 8 0.5
v -2.5 8 -0.5
v -2.5 8 -1.5
v -2.5 9 2.5
v -2.5 9 0.5
v -1.5 0 0.5
v -1.5 0 -0.5
v -1.5 4 0.5
v -1.5 4 -0.5
v -1.5 5 -0.5
v -1.5 5 -1.5
v -1.5 6 -0.5
v -1.5 6 -1.5
v -1.5 6 -2.5
v -1.5 7 -1.5
v -1.5 7 -2.5
v -1.5 8 0.5
v -1.5 8 -0.5
v -1.5 8 -1.5
v -1.5 8 -2.5
v -1.5 9 0.5
v -1.5 9 -1.5
v -0.5 4 0.5
v -0.5 4 -0.5
v -0.5 5 0.5
v -0.5 5 -0.5
v -0.5 5 -1.5
v -0.5 5 -2.5
v -0.5 6 -1.5
v -0.5 6 -2.5
v 0.5 4 -0.5
v 0.5 4 -1.5
v 0.5 5 -0.5
v 0.5 5 -1.5
v -1.5 4 2.5
v -1.5 4 1.5
v -1.5 4 0.5
v -1.5 4 -0.5
v -1.5 5 3.5
v -1.5 5 2.5
v -1.5 5 1.5
v -1.5 5 0.5
v -1.5 5 -0.5
v -1.5 6 3.5
v -1.5 6 2.5
v -0.5 0 0.5
v -0.5 0 -0.5
v -0.5 3 0.5
v -0.5 3 -0.5
v -0.5 4 1.5
v -0.5 4 0.5
v -0.5 5 1.5
v -0.5 5 0.5
v -0.5 6 3.5
v -0.5 6 2.5
v -0.5 7 2.5
v -0.5 7 1.5
v -0.5 7 -1.5
v -0.5 7 -2.5
v -0.5 8 3.5
v -0.5 8 2.5
v -0.5 8 1.5
v -0.5 8 -1.5
v -0.5 8 -2.5
v -0.5 9 2.5
v -0.5 9 -1.5
v 0.5 3 0.5
v 0.5 3 -0.5
v 0.5 4 -0.5
v 0.5 5 2.5
v 0.5 5 0.5
v 0.5 5 -0.5
v 0.5 5 -1.5
v 0.5 5 -2.5
v 0.5 6 2.5
v 0.5 6 1.5
v 0.5 6 0.5
v 0.5 7 2.5
v 0.5 7 1.5
v 0.5 7 -0.5
v 0.5 7 -1.5
v 0.5 7 -2.5
v 0.5 8 -0.5
v 0.5 8 -1.5
v 1.5 4 -0.5
v 1.5 4 -1.5
v 1.5 5 0.5
v 1.5 5 -0.5
v 1.5 6 1.5
v 1.5 6 0.5
v 1.5 6 -0.5
v 1.5 7 -0.5
v 1.5 7 -1.5
v 1.5 8 1.5
v 1.5 8 0.5
v 1.5 8 -0.5
v -3.5 6 3.5
v -3.5 7 3.5
v -3.5 8 3.5
v -2.5 5 3.5
v -2.5 6 3.5
v -2.5 7 3.5
v -1.5 5 3.5
v -1.5 6 3.5
v -1.5 8 3.5
v -0.5 6 3.5
v -0.5 8 3.5
v -2.5 4 2.5
v -2.5 5 2.5
v -2.5 8 2.5
v -2.5 9 2.5
v -1.5 4 2.5
v -1.5 5 2.5
v -1.5 6 2.5
v -1.5 8 2.5
v -0.5 5 2.5
v -0.5 6 2.5
v -0.5 7 2.5
v -0.5 8 2.5
v -0.5 9 2.5
v 0.5 5 2.5
v 0.5 6 2.5
v 0.5 7 2.5
v -1.5 4 1.5
v -1.5 5 1.5
v -0.5 4 1.5
v -0.5 5 1.5
v -0.5 7 1.5
v -0.5 8 1.5
v 0.5 6 1.5
v 0.5 7 1.5
v 0.5 8 1.5
v 1.5 6 1.5
v 1.5 8 1.5
v -1.5 0 0.5
v -1.5 4 0.5
v -0.5 0 0.5
v -0.5 3 0.5
v -0.5 4 0.5
v -0.5 5 0.5
v 0.5 3 0.5
v 0.5 5 0.5
v 0.5 6 0.5
v 1.5 5 0.5
v 1.5 6 0.5
v 0.5 4 -0.5
v 0.5 5 -0.5
v 1.5 4 -0.5
v 1.5 5 -0.5
v -3.5 6 0.5
v -3.5 7 0.5
v -3.5 8 0.5
v -2.5 6 0.5
v -2.5 7 0.5
v -2.5 8 0.5
v -2.5 9 0.5
v -1.5 4 0.5
v -1.5 5 0.5
v -1.5 8 0.5
v -1.5 9 0.5
v -0.5 4 0.5
v -0.5 5 0.5
v -2.5 4 -0.5
v -2.5 6 -0.5
v -1.5 0 -0.5
v -1.5 4 -0.5
v -1.5 5 -0.5
v -1.5 6 -0.5
v -0.5 0 -0.5
v -0.5 3 -0.5
v -0.5 4 -0.5
v -0.5 5 -0.5
v 0.5 3 -0.5
v 0.5 4 -0.5
v 0.5 5 -0.5
v 0.5 7 -0.5
v 0.5 8 -0.5
v 1.5 7 -0.5
v 1.5 8 -0.5
v -2.5 6 -1.5
v -2.5 8 -1.5
v -1.5 5 -1.5
v -1.5 6 -1.5
v -1.5 7 -1.5
v -1.5 8 -1.5
v -1.5 9 -1.5
v -0.5 5 -1.5
v -0.5 6 -1.5
v -0.5 7 -1.5
v -0.5 8 -1.5
v -0.5 9 -1.5
v 0.5 4 -1.5
v 0.5 5 -1.5
v 0.5 7 -1.5
v 0.5 8 -1.5
v 1.5 4 -1.5
v 1.5 7 -1.5
v -1.5 6 -2.5
v -1.5 7 -2.5
v -1.5 8 -2.5
v -0.5 5 -2.5
v -0.5 6 -2.5
v -0.5 7 -2.5
v -0.5 8 -2.5
v 0.5 5 -2.5
v 0.5 7 -2.5
v -1.5 0 0.5
v -0.5 0 0.5
v -1.5 0 -0.5
v -0.5 0 -0.5
v -0.5 3 0.5
v 0.5 3 0.5
v -0.5 3 -0.5
v 0.5 3 -0.5
v -2.5 4 2.5
v -1.5 4 2.5
v -1.5 4 1.5
v -0.5 4 1.5
v -1.5 4 0.5
v -0.5 4 0.5
v -2.5 4 -0.5
v -1.5 4 -0.5
v 0.5 4 -0.5
v 1.5 4 -0.5
v 0.5 4 -1.5
v 1.5 4 -1.5
v -2.5 5 3.5
v -1.5 5 3.5
v -2.5 5 2.5
v -1.5 5 2.5
v -0.5 5 2.5
v 0.5 5 2.5
v -1.5 5 1.5
v -0.5 5 1.5
v -1.5 5 0.5
v -0.5 5 0.5
v 0.5 5 0.5
v 1.5 5 0.5
v -1.5 5 -0.5
v -0.5 5 -0.5
v 0.5 5 -0.5
v 1.5 5 -0.5
v -1.5 5 -1.5
v -0.5 5 -1.5
v 0.5 5 -1.5
v -0.5 5 -2.5
v 0.5 5 -2.5
v -3.5 6 3.5
v -2.5 6 3.5
v -1.5 6 3.5
v -0.5 6 3.5
v -3.5 6 2.5
v -2.5 6 2.5
v -1.5 6 2.5
v -0.5 6 2.5
v -3.5 6 1.5
v -2.5 6 1.5
v 0.5 6 1.5
v 1.5 6 1.5
v -3.5 6 0.5
v -2.5 6 0.5
v 0.5 6 0.5
v 1.5 6 0.5
v -2.5 6 -0.5
v -1.5 6 -0.5
v -2.5 6 -1.5
v -1.5 6 -1.5
v -0.5 6 -1.5
v -1.5 6 -2.5
v -0.5 6 -2.5
v -1.5 4 0.5
v -0.5 4 0.5
v -1.5 4 -0.5
v -0.5 4 -0.5
v -0.5 7 2.5
v 0.5 7 2.5
v -0.5 7 1.5
v 0.5 7 1.5
v 0.5 7 -0.5
v 1.5 7 -0.5
v -0.5 7 -1.5
v 0.5 7 -1.5
v 1.5 7 -1.5
v -0.5 7 -2.5
v 0.5 7 -2.5
v -3.5 8 3.5
v -1.5 8 3.5
v -0.5 8 3.5
v -2.5 8 2.5
v -1.5 8 2.5
v -0.5 8 2.5
v -0.5 8 1.5
v 0.5 8 1.5
v 1.5 8 1.5
v -3.5 8 0.5
v -2.5 8 0.5
v -1.5 8 0.5
v 0.5 8 0.5
v 1.5 8 0.5
v -2.5 8 -0.5
v -1.5 8 -0.5
v 0.5 8 -0.5
v 1.5 8 -0.5
v -2.5 8 -1.5
v -1.5 8 -1.5
v -0.5 8 -1.5
v 0.5 8 -1.5
v -1.5 8 -2.5
v -0.5 8 -2.5
v -2.5 9 2.5
v -0.5 9 2.5
v -2.5 9 0.5
v -1.5 9 0.5
v -1.5 9 -1.5
v -0.5 9 -1.5

# faces
f 5/2/1 2/2/1 1/2/1
f 6/3/1 3/3/1 2/3/1
f 6/2/1 2/2/1 5/2/1
f 7/2/1 4/2/1 3/2/1
f 7/3/1 3/3/1 6/3/1
f 8/2/1 4/2/1 7/2/1
f 9/3/1 6/3/1 5/3/1
f 9/3/1 7/3/1 6/3/1
f 9/3/1 8/3/1 7/3/1
f 10/3/1 8/3/1 9/3/1
f 14/2/1 12/2/1 11/2/1
f 15/2/1 14/2/1 13/2/1
f 16/2/1 12/2/1 14/2/1
f 16/2/1 14/2/1 15/2/1
f 17/2/1 12/2/1 16/2/1
f 18/2/1 12/2/1 17/2/1
f 19/2/1 12/2/1 18/2/1
f 21/2/1 20/2/1 19/2/1
f 21/2/1 19/2/1 18/2/1
f 22/2/1 20/2/1 21/2/1
f 24/3/1 22/3/1 21/3/1
f 25/2/1 20/2/1 22/2/1
f 25/3/1 22/3/1 24/3/1
f 26/2/1 20/2/1 25/2/1
f 27/3/1 24/3/1 23/3/1
f 28/3/1 24/3/1 27/3/1
f 31/1/1 30/1/1 29/1/1
f 32/1/1 30/1/1 31/1/1
f 35/2/1 34/2/1 33/2/1
f 36/2/1 34/2/1 35/2/1
f 38/2/1 37/2/1 36/2/1
f 39/2/1 37/2/1 38/2/1
f 42/3/1 39/3/1 38/3/1
f 43/3/1 39/3/1 42/3/1
f 44/3/1 41/3/1 40/3/1
f 44/3/1 42/3/1 41/3/1
f 45/3/1 42/3/1 44/3/1
f 48/1/1 47/1/1 46/1/1
f 49/1/1 47/1/1 48/1/1
f 52/2/1 51/2/1 50/2/1
f 53/2/1 51/2/1 52/2/1
f 56/2/1 55/2/1 54/2/1
f 57/2/1 55/2/1 56/2/1
f 58/2/2 59/2/2 63/2/2
f 63/2/2 59/2/2 64/2/2
f 60/2/2 61/2/2 65/2/2
f 65/2/2 61/2/2 66/2/2
f 62/2/2 63/2/2 67/2/2
f 67/2/2 63/2/2 68/2/2
f 69/1/2 70/1/2 71/1/2
f 71/1/2 70/1/2 72/1/2
f 73/2/2 74/2/2 75/2/2
f 75/2/2 74/2/2 76/2/2
f 77/2/2 78/2/2 79/2/2
f 77/2/2 79/2/2 83/2/2
f 79/3/2 80/3/2 84/3/2
f 83/2/2 79/2/2 84/2/2
f 84/3/2 80/3/2 85/3/2
f 81/3/2 82/3/2 86/3/2
f 86/3/2 82/3/2 87/3/2
f 84/3/2 85/3/2 88/3/2
f 85/3/2 86/3/2 88/3/2
f 88/3/2 86/3/2 89/3/2
f 90/1/2 91/1/2 92/1/2
f 90/1/2 92/1/2 94/1/2
f 94/1/2 92/1/2 95/1/2
f 93/2/2 94/2/2 98/2/2
f 98/2/2 94/2/2 99/2/2
f 99/2/2 94/2/2 100/2/2
f 98/3/2 99/3/2 101/3/2
f 101/3/2 99/3/2 102/3/2
f 96/2/2 97/2/2 104/2/2
f 104/2/2 97/2/2 105/2/2
f 103/3/2 104/3/2 106/3/2
f 106/3/2 104/3/2 107/3/2
f 108/2/2 109/2/2 111/2/2
f 110/2/2 111/2/2 113/2/2
f 111/2/2 109/2/2 114/2/2
f 113/2/2 111/2/2 114/2/2
f 113/3/2 114/3/2 115/3/2
f 114/2/2 109/2/2 115/2/2
f 115/2/2 109/2/2 116/2/2
f 112/2/2 113/2/2 117/2/2
f 113/3/2 115/3/2 118/3/2
f 117/2/2 113/2/2 118/2/2
f 118/3/2 115/3/2 119/3/2
f 124/2/3 121/2/3 120/2/3
f 125/3/3 122/3/3 121/3/3
f 125/2/3 121/2/3 124/2/3
f 126/2/3 124/2/3 123/2/3
f 127/3/3 125/3/3 124/3/3
f 127/2/3 124/2/3 126/2/3
f 128/3/3 122/3/3 125/3/3
f 128/3/3 125/3/3 127/3/3
f 129/2/3 128/2/3 127/2/3
f 130/2/3 128/2/3 129/2/3
f 135/2/3 132/2/3 131/2/3
f 136/2/3 132/2/3 135/2/3
f 138/3/3 134/3/3 133/3/3
f 139/1/3 137/1/3 136/1/3
f 140/1/3 137/1/3 139/1/3
f 142/3/3 134/3/3 138/3/3
f 143/3/3 134/3/3 142/3/3
f 144/2/3 140/2/3 139/2/3
f 145/3/3 141/3/3 140/3/3
f 145/2/3 140/2/3 144/2/3
f 146/3/3 141/3/3 145/3/3
f 149/2/3 148/2/3 147/2/3
f 150/2/3 148/2/3 149/2/3
f 154/3/3 152/3/3 151/3/3
f 155/3/3 152/3/3 154/3/3
f 156/2/3 154/2/3 153/2/3
f 156/2/3 155/2/3 154/2/3
f 157/2/3 155/2/3 156/2/3
f 160/1/3 159/1/3 158/1/3
f 161/1/3 159/1/3 160/1/3
f 162/1/3 159/1/3 161/1/3
f 164/1/3 163/1/3 162/1/3
f 164/1/3 162/1/3 161/1/3
f 165/1/3 163/1/3 164/1/3
f 167/2/3 166/2/3 165/2/3
f 168/2/3 166/2/3 167/2/3
f 171/2/3 170/2/3 169/2/3
f 172/2/3 170/2/3 171/2/3
f 173/2/4 174/2/4 176/2/4
f 174/3/4 175/3/4 177/3/4
f 176/2/4 174/2/4 177/2/4
f 177/3/4 175/3/4 178/3/4
f 178/3/4 179/3/4 182/3/4
f 182/3/4 179/3/4 183/3/4
f 180/2/4 181/2/4 184/2/4
f 184/2/4 181/2/4 185/2/4
f 186/2/4 187/2/4 189/2/4
f 189/2/4 187/2/4 190/2/4
f 190/2/4 187/2/4 191/2/4
f 188/1/4 189/1/4 192/1/4
f 192/1/4 189/1/4 193/1/4
f 193/1/4 189/1/4 194/1/4
f 194/1/4 195/1/4 196/1/4
f 193/1/4 194/1/4 196/1/4
f 196/1/4 195/1/4 197/1/4
f 197/1/4 195/1/4 198/1/4
f 199/3/4 200/3/4 201/3/4
f 201/3/4 200/3/4 202/3/4
f 203/2/4 204/2/4 206/2/4
f 206/2/4 204/2/4 207/2/4
f 207/2/4 204/2/4 208/2/4
f 205/2/4 206/2/4 210/2/4
f 210/2/4 206/2/4 211/2/4
f 208/3/4 209/3/4 213/3/4
f 213/3/4 209/3/4 214/3/4
f 212/3/4 213/3/4 217/3/4
f 217/3/4 213/3/4 218/3/4
f 215/2/4 216/2/4 219/2/4
f 216/2/4 217/2/4 219/2/4
f 219/2/4 217/2/4 220/2/4
f 221/2/4 222/2/4 225/2/4
f 222/3/4 223/3/4 226/3/4
f 225/2/4 222/2/4 226/2/4
f 226/3/4 223/3/4 227/3/4
f 224/2/4 225/2/4 228/2/4
f 225/2/4 226/2/4 228/2/4
f 228/2/4 226/2/4 229/2/4
f 232/1/5 231/1/5 230/1/5
f 233/1/5 231/1/5 232/1/5
f 236/1/5 235/1/5 234/1/5
f 237/1/5 235/1/5 236/1/5
f 240/2/5 239/2/5 238/2/5
f 242/2/5 240/2/5 238/2/5
f 242/2/5 241/2/5 240/2/5
f 243/2/5 241/2/5 242/2/5
f 244/2/5 242/2/5 238/2/5
f 245/2/5 242/2/5 244/2/5
f 248/2/5 247/2/5 246/2/5
f 249/2/5 247/2/5 248/2/5
f 252/2/5 251/2/5 250/2/5
f 253/2/5 251/2/5 252/2/5
f 256/1/5 254/1/5 253/1/5
f 257/2/5 255/2/5 254/2/5
f 257/1/5 254/1/5 256/1/5
f 259/2/5 255/2/5 257/2/5
f 260/2/5 255/2/5 259/2/5
f 262/2/5 259/2/5 258/2/5
f 263/2/5 259/2/5 262/2/5
f 264/2/5 261/2/5 260/2/5
f 265/2/5 261/2/5 264/2/5
f 266/2/5 263/2/5 262/2/5
f 266/2/5 264/2/5 263/2/5
f 267/2/5 264/2/5 266/2/5
f 268/2/5 264/2/5 267/2/5
f 269/2/5 268/2/5 267/2/5
f 270/2/5 268/2/5 269/2/5
f 275/2/5 272/2/5 271/2/5
f 276/2/5 272/2/5 275/2/5
f 277/2/5 274/2/5 273/2/5
f 278/2/5 274/2/5 277/2/5
f 279/3/5 276/3/5 275/3/5
f 280/3/5 276/3/5 279/3/5
f 283/2/5 280/2/5 279/2/5
f 284/2/5 280/2/5 283/2/5
f 285/2/5 282/2/5 281/2/5
f 286/2/5 282/2/5 285/2/5
f 289/2/5 288/2/5 287/2/5
f 290/2/5 288/2/5 289/2/5
f 292/2/5 291/2/5 290/2/5
f 293/2/5 291/2/5 292/2/5
f 294/1/6 295/1/6 296/1/6
f 296/1/6 295/1/6 297/1/6
f 298/3/6 299/3/6 300/3/6
f 300/3/6 299/3/6 301/3/6
f 302/2/6 303/2/6 305/2/6
f 305/2/6 303/2/6 306/2/6
f 304/2/6 305/2/6 307/2/6
f 307/2/6 305/2/6 308/2/6
f 309/3/6 310/3/6 312/3/6
f 310/2/6 311/2/6 313/2/6
f 312/3/6 310/3/6 313/3/6
f 313/2/6 311/2/6 314/2/6
f 309/3/6 312/3/6 318/3/6
f 318/3/6 312/3/6 319/3/6
f 316/2/6 317/2/6 321/2/6
f 315/3/6 316/3/6 321/3/6
f 321/2/6 317/2/6 322/2/6
f 319/3/6 320/3/6 323/3/6
f 323/3/6 320/3/6 324/3/6
f 321/3/6 322/3/6 325/3/6
f 315/3/6 321/3/6 325/3/6
f 325/3/6 322/3/6 326/3/6
f 323/2/6 324/2/6 327/2/6
f 327/2/6 324/2/6 328/2/6
f 315/3/6 325/3/6 329/3/6
f 329/3/6 325/3/6 330/3/6
f 328/3/6 329/3/6 331/3/6
f 331/3/6 329/3/6 332/3/6
f 333/3/6 334/3/6 335/3/6
f 335/3/6 334/3/6 336/3/6
f 336/3/6 334/3/6 337/3/6
f 337/3/6 334/3/6 338/3/6
