# MagicaVoxel @ Ephtracy

# material
mtllib PathStraight.mtl
usemtl palette

# normals
vn -1 0 0
vn 1 0 0
vn 0 0 1
vn 0 0 -1
vn 0 -1 0
vn 0 1 0

# texcoords
vt 0.939453 0.5
vt 0.943359 0.5
vt 0.947266 0.5
vt 0.970703 0.5
vt 0.974609 0.5
vt 0.978516 0.5

# verts
v -10 0 10
v -10 0 -10
v -10 3 4
v -10 3 3
v -10 3 2
v -10 3 1
v -10 3 -6
v -10 3 -7
v -10 4 10
v -10 4 4
v -10 4 3
v -10 4 2
v -10 4 1
v -10 4 -6
v -10 4 -7
v -10 4 -10
v 10 0 10
v 10 0 -10
v 10 3 4
v 10 3 3
v 10 3 -2
v 10 3 -3
v 10 3 -8
v 10 3 -9
v 10 4 10
v 10 4 4
v 10 4 3
v 10 4 -2
v 10 4 -3
v 10 4 -8
v 10 4 -9
v 10 4 -10
v -10 0 10
v -10 4 10
v -9 3 10
v -9 4 10
v -8 3 10
v -8 4 10
v -4 3 10
v -4 4 10
v -3 3 10
v -3 4 10
v -2 3 10
v -2 4 10
v 4 3 10
v 4 4 10
v 10 0 10
v 10 4 10
v -10 0 -10
v -10 4 -10
v -6 3 -10
v -6 4 -10
v -5 3 -10
v -5 4 -10
v -4 3 -10
v -4 4 -10
v -3 3 -10
v -3 4 -10
v -2 3 -10
v -2 4 -10
v -1 3 -10
v -1 4 -10
v 2 3 -10
v 2 4 -10
v 3 3 -10
v 3 4 -10
v 4 3 -10
v 4 4 -10
v 5 3 -10
v 5 4 -10
v 10 0 -10
v 10 4 -10
v -10 0 10
v 10 0 10
v -10 0 -10
v 10 0 -10
v -10 4 10
v -9 4 10
v -8 4 10
v -4 4 10
v -3 4 10
v -2 4 10
v 4 4 10
v 10 4 10
v -9 4 9
v -8 4 9
v -4 4 9
v -3 4 9
v -2 4 9
v -1 4 9
v 2 4 9
v 3 4 9
v 4 4 9
v 5 4 9
v -6 4 8
v -5 4 8
v -4 4 8
v -2 4 8
v -1 4 8
v 2 4 8
v 3 4 8
v 6 4 8
v 7 4 8
v 8 4 8
v 9 4 8
v -7 4 7
v -6 4 7
v -5 4 7
v -4 4 7
v 4 4 7
v 5 4 7
v 6 4 7
v 7 4 7
v 8 4 7
v 9 4 7
v -7 4 6
v -6 4 6
v -5 4 6
v 0 4 6
v 1 4 6
v 5 4 6
v 6 4 6
v 7 4 6
v 8 4 6
v -9 4 5
v -8 4 5
v -7 4 5
v -6 4 5
v -5 4 5
v -4 4 5
v 0 4 5
v 1 4 5
v 2 4 5
v 4 4 5
v 5 4 5
v 6 4 5
v 8 4 5
v 9 4 5
v -10 4 4
v -9 4 4
v -8 4 4
v -6 4 4
v -5 4 4
v 1 4 4
v 2 4 4
v 4 4 4
v 5 4 4
v 8 4 4
v 9 4 4
v 10 4 4
v -10 4 3
v -9 4 3
v -8 4 3
v -7 4 3
v -6 4 3
v -5 4 3
v -4 4 3
v -3 4 3
v -2 4 3
v 6 4 3
v 7 4 3
v 9 4 3
v 10 4 3
v -10 4 2
v -9 4 2
v -8 4 2
v -7 4 2
v -6 4 2
v -5 4 2
v -4 4 2
v -3 4 2
v -2 4 2
v 0 4 2
v 1 4 2
v 4 4 2
v 5 4 2
v 6 4 2
v 7 4 2
v 8 4 2
v -10 4 1
v -9 4 1
v -6 4 1
v -5 4 1
v -4 4 1
v -1 4 1
v 0 4 1
v 1 4 1
v 3 4 1
v 4 4 1
v 7 4 1
v 8 4 1
v -6 4 -0
v -5 4 -0
v -1 4 -0
v 0 4 -0
v 5 4 -0
v 6 4 -0
v -8 4 -1
v -7 4 -1
v -6 4 -1
v -5 4 -1
v -3 4 -1
v -2 4 -1
v 3 4 -1
v 4 4 -1
v 5 4 -1
v 6 4 -1
v -9 4 -2
v -8 4 -2
v -7 4 -2
v -6 4 -2
v -5 4 -2
v -3 4 -2
v -2 4 -2
v 4 4 -2
v 5 4 -2
v 6 4 -2
v 9 4 -2
v 10 4 -2
v -9 4 -3
v -8 4 -3
v -7 4 -3
v -6 4 -3
v -5 4 -3
v 5 4 -3
v 6 4 -3
v 8 4 -3
v 9 4 -3
v 10 4 -3
v -9 4 -4
v -8 4 -4
v -4 4 -4
v -3 4 -4
v -1 4 -4
v 0 4 -4
v 5 4 -4
v 6 4 -4
v 8 4 -4
v 9 4 -4
v -9 4 -5
v -8 4 -5
v -5 4 -5
v -4 4 -5
v -3 4 -5
v -1 4 -5
v 0 4 -5
v 5 4 -5
v 6 4 -5
v -10 4 -6
v -9 4 -6
v -8 4 -6
v -4 4 -6
v -3 4 -6
v 7 4 -6
v 8 4 -6
v -10 4 -7
v -9 4 -7
v -7 4 -7
v -6 4 -7
v -5 4 -7
v -4 4 -7
v -3 4 -7
v 3 4 -7
v 4 4 -7
v 6 4 -7
v 7 4 -7
v 8 4 -7
v -8 4 -8
v -7 4 -8
v -6 4 -8
v -4 4 -8
v -3 4 -8
v -1 4 -8
v 0 4 -8
v 2 4 -8
v 3 4 -8
v 4 4 -8
v 5 4 -8
v 6 4 -8
v 7 4 -8
v 8 4 -8
v 9 4 -8
v 10 4 -8
v -8 4 -9
v -7 4 -9
v -6 4 -9
v -5 4 -9
v -2 4 -9
v -1 4 -9
v 0 4 -9
v 6 4 -9
v 7 4 -9
v 9 4 -9
v 10 4 -9
v -10 4 -10
v -6 4 -10
v -5 4 -10
v -4 4 -10
v -3 4 -10
v -2 4 -10
v -1 4 -10
v 2 4 -10
v 3 4 -10
v 4 4 -10
v 5 4 -10
v 10 4 -10

# faces
f 3/4/1 2/4/1 1/4/1
f 4/4/1 2/4/1 3/4/1
f 5/4/1 2/4/1 4/4/1
f 6/4/1 2/4/1 5/4/1
f 7/4/1 2/4/1 6/4/1
f 8/4/1 2/4/1 7/4/1
f 9/4/1 3/4/1 1/4/1
f 10/6/1 4/6/1 3/6/1
f 10/4/1 3/4/1 9/4/1
f 11/4/1 5/4/1 4/4/1
f 11/6/1 4/6/1 10/6/1
f 12/6/1 6/6/1 5/6/1
f 12/4/1 5/4/1 11/4/1
f 13/4/1 7/4/1 6/4/1
f 13/6/1 6/6/1 12/6/1
f 14/6/1 8/6/1 7/6/1
f 14/4/1 7/4/1 13/4/1
f 15/4/1 2/4/1 8/4/1
f 15/6/1 8/6/1 14/6/1
f 16/4/1 2/4/1 15/4/1
f 17/4/2 18/4/2 19/4/2
f 19/4/2 18/4/2 20/4/2
f 20/4/2 18/4/2 21/4/2
f 21/4/2 18/4/2 22/4/2
f 22/4/2 18/4/2 23/4/2
f 23/4/2 18/4/2 24/4/2
f 17/4/2 19/4/2 25/4/2
f 19/6/2 20/6/2 26/6/2
f 25/4/2 19/4/2 26/4/2
f 20/4/2 21/4/2 27/4/2
f 26/6/2 20/6/2 27/6/2
f 21/6/2 22/6/2 28/6/2
f 27/4/2 21/4/2 28/4/2
f 22/4/2 23/4/2 29/4/2
f 28/6/2 22/6/2 29/6/2
f 23/6/2 24/6/2 30/6/2
f 29/4/2 23/4/2 30/4/2
f 24/4/2 18/4/2 31/4/2
f 30/6/2 24/6/2 31/6/2
f 31/4/2 18/4/2 32/4/2
f 35/4/3 34/4/3 33/4/3
f 36/4/3 34/4/3 35/4/3
f 37/4/3 35/4/3 33/4/3
f 37/6/3 36/6/3 35/6/3
f 38/6/3 36/6/3 37/6/3
f 39/4/3 37/4/3 33/4/3
f 39/4/3 38/4/3 37/4/3
f 40/4/3 38/4/3 39/4/3
f 41/4/3 39/4/3 33/4/3
f 41/1/3 40/1/3 39/1/3
f 42/1/3 40/1/3 41/1/3
f 43/4/3 41/4/3 33/4/3
f 43/3/3 42/3/3 41/3/3
f 44/3/3 42/3/3 43/3/3
f 45/4/3 43/4/3 33/4/3
f 45/2/3 44/2/3 43/2/3
f 46/2/3 44/2/3 45/2/3
f 47/4/3 45/4/3 33/4/3
f 47/4/3 46/4/3 45/4/3
f 48/4/3 46/4/3 47/4/3
f 49/4/4 50/4/4 51/4/4
f 51/4/4 50/4/4 52/4/4
f 49/4/4 51/4/4 53/4/4
f 51/6/4 52/6/4 53/6/4
f 53/6/4 52/6/4 54/6/4
f 49/4/4 53/4/4 55/4/4
f 53/4/4 54/4/4 55/4/4
f 55/4/4 54/4/4 56/4/4
f 49/4/4 55/4/4 57/4/4
f 55/3/4 56/3/4 57/3/4
f 57/3/4 56/3/4 58/3/4
f 49/4/4 57/4/4 59/4/4
f 57/2/4 58/2/4 59/2/4
f 59/2/4 58/2/4 60/2/4
f 49/4/4 59/4/4 61/4/4
f 59/3/4 60/3/4 61/3/4
f 61/3/4 60/3/4 62/3/4
f 49/4/4 61/4/4 63/4/4
f 61/2/4 62/2/4 63/2/4
f 63/2/4 62/2/4 64/2/4
f 49/4/4 63/4/4 65/4/4
f 63/3/4 64/3/4 65/3/4
f 65/3/4 64/3/4 66/3/4
f 49/4/4 65/4/4 67/4/4
f 65/2/4 66/2/4 67/2/4
f 67/2/4 66/2/4 68/2/4
f 49/4/4 67/4/4 69/4/4
f 67/1/4 68/1/4 69/1/4
f 69/1/4 68/1/4 70/1/4
f 49/4/4 69/4/4 71/4/4
f 69/4/4 70/4/4 71/4/4
f 71/4/4 70/4/4 72/4/4
f 75/4/5 74/4/5 73/4/5
f 76/4/5 74/4/5 75/4/5
f 77/4/6 78/4/6 85/4/6
f 78/6/6 79/6/6 85/6/6
f 79/4/6 80/4/6 86/4/6
f 85/6/6 79/6/6 86/6/6
f 80/1/6 81/1/6 87/1/6
f 86/4/6 80/4/6 87/4/6
f 81/3/6 82/3/6 88/3/6
f 87/1/6 81/1/6 88/1/6
f 82/2/6 83/2/6 89/2/6
f 88/3/6 82/3/6 89/3/6
f 89/2/6 83/2/6 90/2/6
f 90/2/6 83/2/6 91/2/6
f 91/2/6 83/2/6 92/2/6
f 83/4/6 84/4/6 93/4/6
f 92/2/6 83/2/6 93/2/6
f 93/4/6 84/4/6 94/4/6
f 85/4/6 86/4/6 95/4/6
f 86/4/6 87/4/6 95/4/6
f 95/4/6 87/4/6 96/4/6
f 87/2/6 88/2/6 97/2/6
f 96/4/6 87/4/6 97/4/6
f 88/2/6 89/2/6 97/2/6
f 89/3/6 90/3/6 98/3/6
f 97/2/6 89/2/6 98/2/6
f 90/2/6 91/2/6 99/2/6
f 98/3/6 90/3/6 99/3/6
f 91/3/6 92/3/6 100/3/6
f 99/2/6 91/2/6 100/2/6
f 92/2/6 93/2/6 101/2/6
f 100/3/6 92/3/6 101/3/6
f 94/4/6 84/4/6 102/4/6
f 102/4/6 84/4/6 103/4/6
f 103/4/6 84/4/6 104/4/6
f 104/4/6 84/4/6 105/4/6
f 85/4/6 95/4/6 106/4/6
f 95/5/6 96/5/6 107/5/6
f 106/4/6 95/4/6 107/4/6
f 96/1/6 97/1/6 108/1/6
f 107/5/6 96/5/6 108/5/6
f 98/2/6 99/2/6 109/2/6
f 108/1/6 97/1/6 109/1/6
f 97/2/6 98/2/6 109/2/6
f 99/2/6 100/2/6 109/2/6
f 100/2/6 101/2/6 109/2/6
f 101/2/6 93/2/6 110/2/6
f 109/2/6 101/2/6 110/2/6
f 93/1/6 94/1/6 110/1/6
f 94/4/6 102/4/6 111/4/6
f 110/1/6 94/1/6 111/1/6
f 102/6/6 103/6/6 112/6/6
f 111/4/6 102/4/6 112/4/6
f 103/5/6 104/5/6 113/5/6
f 112/6/6 103/6/6 113/6/6
f 104/6/6 105/6/6 114/6/6
f 113/5/6 104/5/6 114/5/6
f 105/4/6 84/4/6 115/4/6
f 114/6/6 105/6/6 115/6/6
f 85/4/6 106/4/6 116/4/6
f 106/5/6 107/5/6 116/5/6
f 107/6/6 108/6/6 117/6/6
f 116/5/6 107/5/6 117/5/6
f 108/3/6 109/3/6 118/3/6
f 117/6/6 108/6/6 118/6/6
f 109/2/6 110/2/6 119/2/6
f 119/2/6 110/2/6 120/2/6
f 111/6/6 112/6/6 121/6/6
f 110/4/6 111/4/6 121/4/6
f 112/5/6 113/5/6 122/5/6
f 121/6/6 112/6/6 122/6/6
f 113/6/6 114/6/6 123/6/6
f 122/5/6 113/5/6 123/5/6
f 114/4/6 115/4/6 124/4/6
f 123/6/6 114/6/6 124/6/6
f 85/4/6 116/4/6 125/4/6
f 77/4/6 85/4/6 125/4/6
f 125/4/6 116/4/6 126/4/6
f 116/6/6 117/6/6 127/6/6
f 126/4/6 116/4/6 127/4/6
f 117/4/6 118/4/6 128/4/6
f 127/6/6 117/6/6 128/6/6
f 118/3/6 109/3/6 129/3/6
f 128/4/6 118/4/6 129/4/6
f 109/2/6 119/2/6 130/2/6
f 129/3/6 109/3/6 130/3/6
f 119/3/6 120/3/6 131/3/6
f 130/2/6 119/2/6 131/2/6
f 120/2/6 110/2/6 132/2/6
f 131/3/6 120/3/6 132/3/6
f 132/2/6 110/2/6 133/2/6
f 110/4/6 121/4/6 134/4/6
f 133/2/6 110/2/6 134/2/6
f 121/5/6 122/5/6 135/5/6
f 134/4/6 121/4/6 135/4/6
f 123/4/6 124/4/6 136/4/6
f 135/5/6 122/5/6 136/5/6
f 122/4/6 123/4/6 136/4/6
f 124/4/6 115/4/6 137/4/6
f 136/4/6 124/4/6 137/4/6
f 115/4/6 84/4/6 138/4/6
f 137/4/6 115/4/6 138/4/6
f 77/4/6 125/4/6 139/4/6
f 125/6/6 126/6/6 140/6/6
f 139/4/6 125/4/6 140/4/6
f 127/4/6 128/4/6 141/4/6
f 140/6/6 126/6/6 141/6/6
f 126/4/6 127/4/6 141/4/6
f 128/4/6 129/4/6 141/4/6
f 141/4/6 129/4/6 142/4/6
f 129/1/6 130/1/6 143/1/6
f 142/4/6 129/4/6 143/4/6
f 131/2/6 132/2/6 144/2/6
f 132/3/6 133/3/6 144/3/6
f 130/2/6 131/2/6 144/2/6
f 133/2/6 134/2/6 145/2/6
f 144/3/6 133/3/6 145/3/6
f 134/3/6 135/3/6 146/3/6
f 145/2/6 134/2/6 146/2/6
f 135/4/6 136/4/6 147/4/6
f 146/3/6 135/3/6 147/3/6
f 136/4/6 137/4/6 147/4/6
f 137/6/6 138/6/6 148/6/6
f 147/4/6 137/4/6 148/4/6
f 138/4/6 84/4/6 149/4/6
f 148/6/6 138/6/6 149/6/6
f 149/4/6 84/4/6 150/4/6
f 139/6/6 140/6/6 151/6/6
f 140/4/6 141/4/6 152/4/6
f 151/6/6 140/6/6 152/6/6
f 141/4/6 142/4/6 152/4/6
f 152/4/6 142/4/6 153/4/6
f 153/4/6 142/4/6 154/4/6
f 142/5/6 143/5/6 155/5/6
f 154/4/6 142/4/6 155/4/6
f 143/1/6 130/1/6 156/1/6
f 155/5/6 143/5/6 156/5/6
f 145/2/6 146/2/6 157/2/6
f 156/1/6 130/1/6 157/1/6
f 144/2/6 145/2/6 157/2/6
f 130/2/6 144/2/6 157/2/6
f 146/2/6 147/2/6 157/2/6
f 157/2/6 147/2/6 158/2/6
f 158/2/6 147/2/6 159/2/6
f 147/4/6 148/4/6 160/4/6
f 148/4/6 149/4/6 160/4/6
f 160/4/6 149/4/6 161/4/6
f 149/6/6 150/6/6 162/6/6
f 161/4/6 149/4/6 162/4/6
f 162/6/6 150/6/6 163/6/6
f 151/4/6 152/4/6 164/4/6
f 152/6/6 153/6/6 165/6/6
f 164/4/6 152/4/6 165/4/6
f 153/4/6 154/4/6 166/4/6
f 165/6/6 153/6/6 166/6/6
f 154/6/6 155/6/6 167/6/6
f 166/4/6 154/4/6 167/4/6
f 155/4/6 156/4/6 168/4/6
f 167/6/6 155/6/6 168/6/6
f 156/3/6 157/3/6 169/3/6
f 168/4/6 156/4/6 169/4/6
f 157/2/6 158/2/6 170/2/6
f 169/3/6 157/3/6 170/3/6
f 158/3/6 159/3/6 171/3/6
f 170/2/6 158/2/6 171/2/6
f 159/2/6 147/2/6 172/2/6
f 171/3/6 159/3/6 172/3/6
f 172/2/6 147/2/6 173/2/6
f 173/2/6 147/2/6 174/2/6
f 174/2/6 147/2/6 175/2/6
f 147/4/6 160/4/6 176/4/6
f 175/2/6 147/2/6 176/2/6
f 160/5/6 161/5/6 177/5/6
f 176/4/6 160/4/6 177/4/6
f 161/4/6 162/4/6 178/4/6
f 177/5/6 161/5/6 178/5/6
f 162/4/6 163/4/6 178/4/6
f 178/4/6 163/4/6 179/4/6
f 164/6/6 165/6/6 180/6/6
f 166/4/6 167/4/6 181/4/6
f 180/6/6 165/6/6 181/6/6
f 165/4/6 166/4/6 181/4/6
f 167/4/6 168/4/6 181/4/6
f 168/4/6 169/4/6 181/4/6
f 181/4/6 169/4/6 182/4/6
f 169/1/6 170/1/6 183/1/6
f 182/4/6 169/4/6 183/4/6
f 170/2/6 171/2/6 184/2/6
f 183/1/6 170/1/6 184/1/6
f 172/2/6 173/2/6 184/2/6
f 171/2/6 172/2/6 184/2/6
f 184/2/6 173/2/6 185/2/6
f 173/3/6 174/3/6 186/3/6
f 185/2/6 173/2/6 186/2/6
f 174/2/6 175/2/6 187/2/6
f 186/3/6 174/3/6 187/3/6
f 187/2/6 175/2/6 188/2/6
f 175/1/6 176/1/6 189/1/6
f 188/2/6 175/2/6 189/2/6
f 178/6/6 179/6/6 190/6/6
f 177/4/6 178/4/6 190/4/6
f 176/4/6 177/4/6 190/4/6
f 179/4/6 163/4/6 191/4/6
f 190/6/6 179/6/6 191/6/6
f 182/1/6 183/1/6 192/1/6
f 181/4/6 182/4/6 192/4/6
f 180/4/6 181/4/6 192/4/6
f 183/2/6 184/2/6 193/2/6
f 192/1/6 183/1/6 193/1/6
f 184/2/6 185/2/6 193/2/6
f 185/3/6 186/3/6 194/3/6
f 193/2/6 185/2/6 194/2/6
f 187/2/6 188/2/6 195/2/6
f 194/3/6 186/3/6 195/3/6
f 186/2/6 187/2/6 195/2/6
f 189/1/6 176/1/6 196/1/6
f 176/4/6 190/4/6 196/4/6
f 190/4/6 191/4/6 196/4/6
f 196/4/6 191/4/6 197/4/6
f 192/4/6 193/4/6 198/4/6
f 180/4/6 192/4/6 198/4/6
f 198/4/6 193/4/6 199/4/6
f 199/4/6 193/4/6 200/4/6
f 194/2/6 195/2/6 201/2/6
f 200/4/6 193/4/6 201/4/6
f 193/2/6 194/2/6 201/2/6
f 201/2/6 195/2/6 202/2/6
f 202/2/6 195/2/6 203/2/6
f 195/2/6 188/2/6 204/2/6
f 203/2/6 195/2/6 204/2/6
f 188/3/6 189/3/6 204/3/6
f 189/1/6 196/1/6 205/1/6
f 204/3/6 189/3/6 205/3/6
f 196/5/6 197/5/6 206/5/6
f 205/1/6 196/1/6 206/1/6
f 197/4/6 191/4/6 207/4/6
f 206/5/6 197/5/6 207/5/6
f 180/4/6 198/4/6 208/4/6
f 198/5/6 199/5/6 209/5/6
f 208/4/6 198/4/6 209/4/6
f 199/4/6 200/4/6 210/4/6
f 209/5/6 199/5/6 210/5/6
f 200/1/6 201/1/6 211/1/6
f 210/4/6 200/4/6 211/4/6
f 201/2/6 202/2/6 212/2/6
f 211/1/6 201/1/6 212/1/6
f 202/3/6 203/3/6 213/3/6
f 212/2/6 202/2/6 213/2/6
f 204/2/6 205/2/6 214/2/6
f 213/3/6 203/3/6 214/3/6
f 203/2/6 204/2/6 214/2/6
f 205/1/6 206/1/6 215/1/6
f 214/2/6 205/2/6 215/2/6
f 206/4/6 207/4/6 216/4/6
f 215/1/6 206/1/6 216/1/6
f 207/4/6 191/4/6 217/4/6
f 216/4/6 207/4/6 217/4/6
f 191/4/6 163/4/6 218/4/6
f 217/4/6 191/4/6 218/4/6
f 218/4/6 163/4/6 219/4/6
f 208/5/6 209/5/6 220/5/6
f 180/4/6 208/4/6 220/4/6
f 209/6/6 210/6/6 221/6/6
f 220/5/6 209/5/6 221/5/6
f 210/4/6 211/4/6 222/4/6
f 221/6/6 210/6/6 222/6/6
f 211/3/6 212/3/6 223/3/6
f 222/4/6 211/4/6 223/4/6
f 213/2/6 214/2/6 224/2/6
f 223/3/6 212/3/6 224/3/6
f 212/2/6 213/2/6 224/2/6
f 214/2/6 215/2/6 224/2/6
f 215/2/6 216/2/6 224/2/6
f 216/3/6 217/3/6 225/3/6
f 224/2/6 216/2/6 225/2/6
f 217/4/6 218/4/6 226/4/6
f 225/3/6 217/3/6 226/3/6
f 226/4/6 218/4/6 227/4/6
f 218/6/6 219/6/6 228/6/6
f 227/4/6 218/4/6 228/4/6
f 228/6/6 219/6/6 229/6/6
f 220/6/6 221/6/6 230/6/6
f 180/4/6 220/4/6 230/4/6
f 223/4/6 224/4/6 231/4/6
f 230/6/6 221/6/6 231/6/6
f 221/4/6 222/4/6 231/4/6
f 222/4/6 223/4/6 231/4/6
f 225/2/6 226/2/6 232/2/6
f 224/2/6 225/2/6 232/2/6
f 232/2/6 226/2/6 233/2/6
f 233/2/6 226/2/6 234/2/6
f 234/2/6 226/2/6 235/2/6
f 235/2/6 226/2/6 236/2/6
f 226/4/6 227/4/6 237/4/6
f 236/2/6 226/2/6 237/2/6
f 227/5/6 228/5/6 238/5/6
f 237/4/6 227/4/6 238/4/6
f 228/4/6 229/4/6 239/4/6
f 238/5/6 228/5/6 239/5/6
f 180/4/6 230/4/6 240/4/6
f 230/4/6 231/4/6 240/4/6
f 231/4/6 224/4/6 241/4/6
f 240/4/6 231/4/6 241/4/6
f 224/2/6 232/2/6 242/2/6
f 241/4/6 224/4/6 242/4/6
f 232/3/6 233/3/6 243/3/6
f 242/2/6 232/2/6 243/2/6
f 233/2/6 234/2/6 244/2/6
f 243/3/6 233/3/6 244/3/6
f 234/3/6 235/3/6 245/3/6
f 244/2/6 234/2/6 245/2/6
f 235/2/6 236/2/6 246/2/6
f 245/3/6 235/3/6 246/3/6
f 236/3/6 237/3/6 247/3/6
f 246/2/6 236/2/6 247/2/6
f 238/4/6 239/4/6 248/4/6
f 247/3/6 237/3/6 248/3/6
f 237/4/6 238/4/6 248/4/6
f 180/4/6 240/4/6 249/4/6
f 240/6/6 241/6/6 250/6/6
f 249/4/6 240/4/6 250/4/6
f 241/4/6 242/4/6 251/4/6
f 250/6/6 241/6/6 251/6/6
f 245/2/6 246/2/6 252/2/6
f 244/2/6 245/2/6 252/2/6
f 246/2/6 247/2/6 252/2/6
f 243/2/6 244/2/6 252/2/6
f 242/1/6 243/1/6 252/1/6
f 252/2/6 247/2/6 253/2/6
f 248/4/6 239/4/6 254/4/6
f 254/4/6 239/4/6 255/4/6
f 249/6/6 250/6/6 256/6/6
f 250/4/6 251/4/6 257/4/6
f 256/6/6 250/6/6 257/6/6
f 251/4/6 242/4/6 258/4/6
f 257/4/6 251/4/6 258/4/6
f 258/4/6 242/4/6 259/4/6
f 242/1/6 252/1/6 260/1/6
f 259/4/6 242/4/6 260/4/6
f 252/3/6 253/3/6 261/3/6
f 260/1/6 252/1/6 261/1/6
f 253/2/6 247/2/6 262/2/6
f 261/3/6 253/3/6 262/3/6
f 262/2/6 247/2/6 263/2/6
f 263/2/6 247/2/6 264/2/6
f 247/1/6 248/1/6 265/1/6
f 248/4/6 254/4/6 265/4/6
f 254/5/6 255/5/6 266/5/6
f 265/4/6 254/4/6 266/4/6
f 255/4/6 239/4/6 267/4/6
f 266/5/6 255/5/6 267/5/6
f 256/4/6 257/4/6 268/4/6
f 257/4/6 258/4/6 268/4/6
f 258/6/6 259/6/6 269/6/6
f 268/4/6 258/4/6 269/4/6
f 260/4/6 261/4/6 270/4/6
f 269/6/6 259/6/6 270/6/6
f 259/4/6 260/4/6 270/4/6
f 262/2/6 263/2/6 271/2/6
f 270/4/6 261/4/6 271/4/6
f 261/2/6 262/2/6 271/2/6
f 271/2/6 263/2/6 272/2/6
f 272/2/6 263/2/6 273/2/6
f 273/2/6 263/2/6 274/2/6
f 274/2/6 263/2/6 275/2/6
f 263/3/6 264/3/6 276/3/6
f 275/2/6 263/2/6 276/2/6
f 264/2/6 247/2/6 277/2/6
f 276/3/6 264/3/6 277/3/6
f 247/1/6 265/1/6 278/1/6
f 277/2/6 247/2/6 278/2/6
f 265/5/6 266/5/6 279/5/6
f 278/1/6 265/1/6 279/1/6
f 266/6/6 267/6/6 280/6/6
f 279/5/6 266/5/6 280/5/6
f 267/4/6 239/4/6 281/4/6
f 280/6/6 267/6/6 281/6/6
f 239/4/6 229/4/6 282/4/6
f 281/4/6 239/4/6 282/4/6
f 282/4/6 229/4/6 283/4/6
f 268/5/6 269/5/6 284/5/6
f 256/4/6 268/4/6 284/4/6
f 269/4/6 270/4/6 285/4/6
f 284/5/6 269/5/6 285/5/6
f 270/4/6 271/4/6 285/4/6
f 285/4/6 271/4/6 286/4/6
f 286/4/6 271/4/6 287/4/6
f 272/2/6 273/2/6 288/2/6
f 273/3/6 274/3/6 289/3/6
f 288/2/6 273/2/6 289/2/6
f 274/2/6 275/2/6 290/2/6
f 289/3/6 274/3/6 290/3/6
f 279/6/6 280/6/6 291/6/6
f 278/4/6 279/4/6 291/4/6
f 280/4/6 281/4/6 292/4/6
f 291/6/6 280/6/6 292/6/6
f 281/4/6 282/4/6 292/4/6
f 282/6/6 283/6/6 293/6/6
f 292/4/6 282/4/6 293/4/6
f 293/6/6 283/6/6 294/6/6
f 256/4/6 284/4/6 295/4/6
f 284/4/6 285/4/6 295/4/6
f 285/4/6 286/4/6 295/4/6
f 286/6/6 287/6/6 296/6/6
f 295/4/6 286/4/6 296/4/6
f 287/4/6 271/4/6 297/4/6
f 296/6/6 287/6/6 297/6/6
f 271/3/6 272/3/6 298/3/6
f 297/4/6 271/4/6 298/4/6
f 272/2/6 288/2/6 299/2/6
f 298/3/6 272/3/6 299/3/6
f 288/3/6 289/3/6 300/3/6
f 299/2/6 288/2/6 300/2/6
f 289/2/6 290/2/6 301/2/6
f 300/3/6 289/3/6 301/3/6
f 290/2/6 275/2/6 302/2/6
f 301/2/6 290/2/6 302/2/6
f 275/3/6 276/3/6 302/3/6
f 276/2/6 277/2/6 303/2/6
f 302/3/6 276/3/6 303/3/6
f 277/1/6 278/1/6 304/1/6
f 303/2/6 277/2/6 304/2/6
f 278/4/6 291/4/6 305/4/6
f 304/1/6 278/1/6 305/1/6
f 292/4/6 293/4/6 305/4/6
f 293/4/6 294/4/6 305/4/6
f 291/4/6 292/4/6 305/4/6
f 305/4/6 294/4/6 306/4/6
