# MagicaVoxel @ Ephtracy

# material
mtllib PathTurn.mtl
usemtl palette

# normals
vn -1 0 0
vn 1 0 0
vn 0 0 1
vn 0 0 -1
vn 0 -1 0
vn 0 1 0

# texcoords
vt 0.939453 0.5
vt 0.943359 0.5
vt 0.947266 0.5
vt 0.970703 0.5
vt 0.974609 0.5
vt 0.978516 0.5

# verts
v -10 0 10
v -10 0 -10
v -10 3 4
v -10 3 3
v -10 3 2
v -10 3 1
v -10 3 -6
v -10 3 -7
v -10 4 10
v -10 4 4
v -10 4 3
v -10 4 2
v -10 4 1
v -10 4 -6
v -10 4 -7
v -10 4 -10
v 10 0 10
v 10 0 -10
v 10 3 4
v 10 3 3
v 10 3 -2
v 10 3 -4
v 10 3 -5
v 10 3 -8
v 10 3 -9
v 10 4 10
v 10 4 4
v 10 4 3
v 10 4 -2
v 10 4 -4
v 10 4 -5
v 10 4 -8
v 10 4 -9
v 10 4 -10
v -10 0 10
v -10 4 10
v -9 3 10
v -9 4 10
v -8 3 10
v -8 4 10
v -4 3 10
v -4 4 10
v -3 3 10
v -3 4 10
v -2 3 10
v -2 4 10
v 1 3 10
v 1 4 10
v 2 3 10
v 2 4 10
v 3 3 10
v 3 4 10
v 4 3 10
v 4 4 10
v 5 3 10
v 5 4 10
v 10 0 10
v 10 4 10
v -10 0 -10
v -10 4 -10
v -6 3 -10
v -6 4 -10
v -5 3 -10
v -5 4 -10
v -1 3 -10
v -1 4 -10
v 0 3 -10
v 0 4 -10
v 4 3 -10
v 4 4 -10
v 5 3 -10
v 5 4 -10
v 10 0 -10
v 10 4 -10
v -10 0 10
v 10 0 10
v -10 0 -10
v 10 0 -10
v -10 4 10
v -9 4 10
v -8 4 10
v -4 4 10
v -3 4 10
v -2 4 10
v 1 4 10
v 2 4 10
v 3 4 10
v 4 4 10
v 5 4 10
v 10 4 10
v -9 4 9
v -8 4 9
v -4 4 9
v -3 4 9
v -2 4 9
v 0 4 9
v 1 4 9
v 2 4 9
v 3 4 9
v 4 4 9
v 5 4 9
v -6 4 8
v -5 4 8
v -4 4 8
v -3 4 8
v 0 4 8
v 1 4 8
v 6 4 8
v 7 4 8
v 8 4 8
v 9 4 8
v -7 4 7
v -6 4 7
v -5 4 7
v -4 4 7
v -3 4 7
v -2 4 7
v -1 4 7
v 0 4 7
v 3 4 7
v 4 4 7
v 5 4 7
v 6 4 7
v 7 4 7
v 8 4 7
v 9 4 7
v -7 4 6
v -6 4 6
v -5 4 6
v -4 4 6
v -3 4 6
v -2 4 6
v -1 4 6
v 0 4 6
v 4 4 6
v 5 4 6
v 6 4 6
v 7 4 6
v 8 4 6
v -9 4 5
v -8 4 5
v -7 4 5
v -6 4 5
v -5 4 5
v -4 4 5
v 1 4 5
v 2 4 5
v 5 4 5
v 6 4 5
v 8 4 5
v 9 4 5
v -10 4 4
v -9 4 4
v -8 4 4
v -6 4 4
v -5 4 4
v -4 4 4
v -2 4 4
v -1 4 4
v 1 4 4
v 2 4 4
v 3 4 4
v 4 4 4
v 5 4 4
v 6 4 4
v 8 4 4
v 9 4 4
v 10 4 4
v -10 4 3
v -9 4 3
v -8 4 3
v -7 4 3
v -6 4 3
v -5 4 3
v -4 4 3
v -3 4 3
v -2 4 3
v -1 4 3
v 2 4 3
v 3 4 3
v 4 4 3
v 5 4 3
v 6 4 3
v 10 4 3
v -10 4 2
v -9 4 2
v -8 4 2
v -7 4 2
v -6 4 2
v -5 4 2
v -3 4 2
v -2 4 2
v 4 4 2
v 5 4 2
v 8 4 2
v 9 4 2
v -10 4 1
v -9 4 1
v -6 4 1
v -5 4 1
v -2 4 1
v -1 4 1
v 1 4 1
v 2 4 1
v 5 4 1
v 6 4 1
v 8 4 1
v 9 4 1
v -6 4 -0
v -5 4 -0
v -4 4 -0
v -3 4 -0
v -2 4 -0
v -1 4 -0
v 1 4 -0
v 2 4 -0
v 5 4 -0
v 6 4 -0
v 7 4 -0
v -8 4 -1
v -7 4 -1
v -6 4 -1
v -4 4 -1
v -3 4 -1
v -1 4 -1
v 0 4 -1
v 3 4 -1
v 4 4 -1
v 6 4 -1
v 7 4 -1
v 8 4 -1
v -9 4 -2
v -8 4 -2
v -7 4 -2
v -4 4 -2
v -3 4 -2
v -2 4 -2
v -1 4 -2
v 0 4 -2
v 2 4 -2
v 3 4 -2
v 4 4 -2
v 7 4 -2
v 8 4 -2
v 9 4 -2
v 10 4 -2
v -9 4 -3
v -8 4 -3
v -7 4 -3
v -3 4 -3
v -2 4 -3
v -1 4 -3
v 0 4 -3
v 1 4 -3
v 2 4 -3
v 3 4 -3
v 6 4 -3
v 8 4 -3
v 9 4 -3
v -9 4 -4
v -8 4 -4
v -4 4 -4
v -3 4 -4
v -2 4 -4
v -1 4 -4
v 0 4 -4
v 1 4 -4
v 2 4 -4
v 3 4 -4
v 5 4 -4
v 6 4 -4
v 8 4 -4
v 9 4 -4
v 10 4 -4
v -9 4 -5
v -8 4 -5
v -4 4 -5
v -3 4 -5
v -2 4 -5
v -1 4 -5
v 1 4 -5
v 2 4 -5
v 3 4 -5
v 5 4 -5
v 6 4 -5
v 9 4 -5
v 10 4 -5
v -10 4 -6
v -9 4 -6
v -8 4 -6
v -4 4 -6
v -3 4 -6
v -2 4 -6
v -1 4 -6
v 0 4 -6
v 2 4 -6
v 3 4 -6
v 4 4 -6
v 7 4 -6
v 8 4 -6
v -10 4 -7
v -9 4 -7
v -7 4 -7
v -6 4 -7
v -4 4 -7
v -3 4 -7
v -2 4 -7
v -1 4 -7
v 0 4 -7
v 3 4 -7
v 4 4 -7
v 6 4 -7
v 7 4 -7
v 8 4 -7
v -8 4 -8
v -7 4 -8
v -6 4 -8
v 0 4 -8
v 1 4 -8
v 6 4 -8
v 7 4 -8
v 8 4 -8
v 9 4 -8
v 10 4 -8
v -8 4 -9
v -7 4 -9
v -6 4 -9
v -5 4 -9
v -1 4 -9
v 0 4 -9
v 1 4 -9
v 4 4 -9
v 5 4 -9
v 6 4 -9
v 7 4 -9
v 9 4 -9
v 10 4 -9
v -10 4 -10
v -6 4 -10
v -5 4 -10
v -1 4 -10
v 0 4 -10
v 4 4 -10
v 5 4 -10
v 10 4 -10

# faces
f 3/4/1 2/4/1 1/4/1
f 4/4/1 2/4/1 3/4/1
f 5/4/1 2/4/1 4/4/1
f 6/4/1 2/4/1 5/4/1
f 7/4/1 2/4/1 6/4/1
f 8/4/1 2/4/1 7/4/1
f 9/4/1 3/4/1 1/4/1
f 10/6/1 4/6/1 3/6/1
f 10/4/1 3/4/1 9/4/1
f 11/4/1 5/4/1 4/4/1
f 11/6/1 4/6/1 10/6/1
f 12/6/1 6/6/1 5/6/1
f 12/4/1 5/4/1 11/4/1
f 13/4/1 7/4/1 6/4/1
f 13/6/1 6/6/1 12/6/1
f 14/6/1 8/6/1 7/6/1
f 14/4/1 7/4/1 13/4/1
f 15/4/1 2/4/1 8/4/1
f 15/6/1 8/6/1 14/6/1
f 16/4/1 2/4/1 15/4/1
f 17/4/2 18/4/2 19/4/2
f 19/4/2 18/4/2 20/4/2
f 20/4/2 18/4/2 21/4/2
f 21/4/2 18/4/2 22/4/2
f 22/4/2 18/4/2 23/4/2
f 23/4/2 18/4/2 24/4/2
f 24/4/2 18/4/2 25/4/2
f 17/4/2 19/4/2 26/4/2
f 19/3/2 20/3/2 27/3/2
f 26/4/2 19/4/2 27/4/2
f 20/2/2 21/2/2 28/2/2
f 27/3/2 20/3/2 28/3/2
f 21/3/2 22/3/2 29/3/2
f 28/2/2 21/2/2 29/2/2
f 22/1/2 23/1/2 30/1/2
f 29/3/2 22/3/2 30/3/2
f 23/4/2 24/4/2 31/4/2
f 30/1/2 23/1/2 31/1/2
f 24/6/2 25/6/2 32/6/2
f 31/4/2 24/4/2 32/4/2
f 25/4/2 18/4/2 33/4/2
f 32/6/2 25/6/2 33/6/2
f 33/4/2 18/4/2 34/4/2
f 37/4/3 36/4/3 35/4/3
f 38/4/3 36/4/3 37/4/3
f 39/4/3 37/4/3 35/4/3
f 39/6/3 38/6/3 37/6/3
f 40/6/3 38/6/3 39/6/3
f 41/4/3 39/4/3 35/4/3
f 41/4/3 40/4/3 39/4/3
f 42/4/3 40/4/3 41/4/3
f 43/4/3 41/4/3 35/4/3
f 43/1/3 42/1/3 41/1/3
f 44/1/3 42/1/3 43/1/3
f 45/4/3 43/4/3 35/4/3
f 45/3/3 44/3/3 43/3/3
f 46/3/3 44/3/3 45/3/3
f 47/4/3 45/4/3 35/4/3
f 47/2/3 46/2/3 45/2/3
f 48/2/3 46/2/3 47/2/3
f 49/4/3 47/4/3 35/4/3
f 49/3/3 48/3/3 47/3/3
f 50/3/3 48/3/3 49/3/3
f 51/4/3 49/4/3 35/4/3
f 51/2/3 50/2/3 49/2/3
f 52/2/3 50/2/3 51/2/3
f 53/4/3 51/4/3 35/4/3
f 53/3/3 52/3/3 51/3/3
f 54/3/3 52/3/3 53/3/3
f 55/4/3 53/4/3 35/4/3
f 55/6/3 54/6/3 53/6/3
f 56/6/3 54/6/3 55/6/3
f 57/4/3 55/4/3 35/4/3
f 57/4/3 56/4/3 55/4/3
f 58/4/3 56/4/3 57/4/3
f 59/4/4 60/4/4 61/4/4
f 61/4/4 60/4/4 62/4/4
f 59/4/4 61/4/4 63/4/4
f 61/6/4 62/6/4 63/6/4
f 63/6/4 62/6/4 64/6/4
f 59/4/4 63/4/4 65/4/4
f 63/4/4 64/4/4 65/4/4
f 65/4/4 64/4/4 66/4/4
f 59/4/4 65/4/4 67/4/4
f 65/6/4 66/6/4 67/6/4
f 67/6/4 66/6/4 68/6/4
f 59/4/4 67/4/4 69/4/4
f 67/4/4 68/4/4 69/4/4
f 69/4/4 68/4/4 70/4/4
f 59/4/4 69/4/4 71/4/4
f 69/6/4 70/6/4 71/6/4
f 71/6/4 70/6/4 72/6/4
f 59/4/4 71/4/4 73/4/4
f 71/4/4 72/4/4 73/4/4
f 73/4/4 72/4/4 74/4/4
f 77/4/5 76/4/5 75/4/5
f 78/4/5 76/4/5 77/4/5
f 79/4/6 80/4/6 91/4/6
f 80/6/6 81/6/6 91/6/6
f 81/4/6 82/4/6 92/4/6
f 91/6/6 81/6/6 92/6/6
f 82/1/6 83/1/6 93/1/6
f 92/4/6 82/4/6 93/4/6
f 83/3/6 84/3/6 94/3/6
f 93/1/6 83/1/6 94/1/6
f 84/2/6 85/2/6 95/2/6
f 94/3/6 84/3/6 95/3/6
f 95/2/6 85/2/6 96/2/6
f 85/3/6 86/3/6 97/3/6
f 96/2/6 85/2/6 97/2/6
f 86/2/6 87/2/6 98/2/6
f 97/3/6 86/3/6 98/3/6
f 87/3/6 88/3/6 99/3/6
f 98/2/6 87/2/6 99/2/6
f 88/6/6 89/6/6 100/6/6
f 99/3/6 88/3/6 100/3/6
f 89/4/6 90/4/6 101/4/6
f 100/6/6 89/6/6 101/6/6
f 91/4/6 92/4/6 102/4/6
f 92/4/6 93/4/6 102/4/6
f 102/4/6 93/4/6 103/4/6
f 93/3/6 94/3/6 104/3/6
f 103/4/6 93/4/6 104/4/6
f 95/2/6 96/2/6 105/2/6
f 104/3/6 94/3/6 105/3/6
f 94/2/6 95/2/6 105/2/6
f 96/3/6 97/3/6 106/3/6
f 105/2/6 96/2/6 106/2/6
f 98/2/6 99/2/6 107/2/6
f 106/3/6 97/3/6 107/3/6
f 97/2/6 98/2/6 107/2/6
f 101/4/6 90/4/6 108/4/6
f 100/4/6 101/4/6 108/4/6
f 108/4/6 90/4/6 109/4/6
f 109/4/6 90/4/6 110/4/6
f 110/4/6 90/4/6 111/4/6
f 91/4/6 102/4/6 112/4/6
f 102/5/6 103/5/6 113/5/6
f 112/4/6 102/4/6 113/4/6
f 103/3/6 104/3/6 114/3/6
f 113/5/6 103/5/6 114/5/6
f 105/2/6 106/2/6 115/2/6
f 114/3/6 104/3/6 115/3/6
f 106/2/6 107/2/6 115/2/6
f 104/2/6 105/2/6 115/2/6
f 115/2/6 107/2/6 116/2/6
f 116/2/6 107/2/6 117/2/6
f 117/2/6 107/2/6 118/2/6
f 118/2/6 107/2/6 119/2/6
f 99/1/6 100/1/6 120/1/6
f 119/2/6 107/2/6 120/2/6
f 107/2/6 99/2/6 120/2/6
f 100/4/6 108/4/6 121/4/6
f 120/1/6 100/1/6 121/1/6
f 121/4/6 108/4/6 122/4/6
f 108/6/6 109/6/6 123/6/6
f 122/4/6 108/4/6 123/4/6
f 109/5/6 110/5/6 124/5/6
f 123/6/6 109/6/6 124/6/6
f 110/6/6 111/6/6 125/6/6
f 124/5/6 110/5/6 125/5/6
f 111/4/6 90/4/6 126/4/6
f 125/6/6 111/6/6 126/6/6
f 91/4/6 112/4/6 127/4/6
f 112/5/6 113/5/6 127/5/6
f 113/6/6 114/6/6 128/6/6
f 127/5/6 113/5/6 128/5/6
f 114/1/6 115/1/6 129/1/6
f 128/6/6 114/6/6 129/6/6
f 115/2/6 116/2/6 130/2/6
f 129/1/6 115/1/6 130/1/6
f 116/3/6 117/3/6 131/3/6
f 130/2/6 116/2/6 131/2/6
f 117/2/6 118/2/6 132/2/6
f 131/3/6 117/3/6 132/3/6
f 118/3/6 119/3/6 133/3/6
f 132/2/6 118/2/6 133/2/6
f 119/2/6 120/2/6 134/2/6
f 133/3/6 119/3/6 134/3/6
f 120/2/6 121/2/6 134/2/6
f 121/1/6 122/1/6 135/1/6
f 134/2/6 121/2/6 135/2/6
f 122/6/6 123/6/6 136/6/6
f 135/1/6 122/1/6 136/1/6
f 123/5/6 124/5/6 137/5/6
f 136/6/6 123/6/6 137/6/6
f 124/6/6 125/6/6 138/6/6
f 137/5/6 124/5/6 138/5/6
f 125/4/6 126/4/6 139/4/6
f 138/6/6 125/6/6 139/6/6
f 91/4/6 127/4/6 140/4/6
f 79/4/6 91/4/6 140/4/6
f 140/4/6 127/4/6 141/4/6
f 127/6/6 128/6/6 142/6/6
f 141/4/6 127/4/6 142/4/6
f 128/4/6 129/4/6 143/4/6
f 142/6/6 128/6/6 143/6/6
f 129/4/6 130/4/6 143/4/6
f 143/4/6 130/4/6 144/4/6
f 131/2/6 132/2/6 145/2/6
f 144/4/6 130/4/6 145/4/6
f 130/2/6 131/2/6 145/2/6
f 134/2/6 135/2/6 145/2/6
f 132/2/6 133/2/6 145/2/6
f 133/2/6 134/2/6 145/2/6
f 145/2/6 135/2/6 146/2/6
f 146/2/6 135/2/6 147/2/6
f 135/3/6 136/3/6 148/3/6
f 136/5/6 137/5/6 148/5/6
f 138/4/6 139/4/6 149/4/6
f 148/5/6 137/5/6 149/5/6
f 137/4/6 138/4/6 149/4/6
f 139/4/6 126/4/6 150/4/6
f 149/4/6 139/4/6 150/4/6
f 126/4/6 90/4/6 151/4/6
f 150/4/6 126/4/6 151/4/6
f 79/4/6 140/4/6 152/4/6
f 140/6/6 141/6/6 153/6/6
f 152/4/6 140/4/6 153/4/6
f 143/4/6 144/4/6 154/4/6
f 153/6/6 141/6/6 154/6/6
f 142/4/6 143/4/6 154/4/6
f 141/4/6 142/4/6 154/4/6
f 154/4/6 144/4/6 155/4/6
f 144/1/6 145/1/6 156/1/6
f 155/4/6 144/4/6 156/4/6
f 145/2/6 146/2/6 157/2/6
f 156/1/6 145/1/6 157/1/6
f 157/2/6 146/2/6 158/2/6
f 158/2/6 146/2/6 159/2/6
f 146/3/6 147/3/6 160/3/6
f 159/2/6 146/2/6 160/2/6
f 147/2/6 135/2/6 161/2/6
f 160/3/6 147/3/6 161/3/6
f 161/2/6 135/2/6 162/2/6
f 135/3/6 148/3/6 163/3/6
f 162/2/6 135/2/6 163/2/6
f 148/1/6 149/1/6 164/1/6
f 163/3/6 148/3/6 164/3/6
f 149/4/6 150/4/6 165/4/6
f 164/1/6 149/1/6 165/1/6
f 150/6/6 151/6/6 166/6/6
f 165/4/6 150/4/6 166/4/6
f 151/4/6 90/4/6 167/4/6
f 166/6/6 151/6/6 167/6/6
f 167/4/6 90/4/6 168/4/6
f 152/6/6 153/6/6 169/6/6
f 154/4/6 155/4/6 170/4/6
f 169/6/6 153/6/6 170/6/6
f 153/4/6 154/4/6 170/4/6
f 170/4/6 155/4/6 171/4/6
f 171/4/6 155/4/6 172/4/6
f 155/5/6 156/5/6 173/5/6
f 172/4/6 155/4/6 173/4/6
f 156/2/6 157/2/6 174/2/6
f 173/5/6 156/5/6 174/5/6
f 157/2/6 158/2/6 174/2/6
f 174/2/6 158/2/6 175/2/6
f 175/2/6 158/2/6 176/2/6
f 158/3/6 159/3/6 177/3/6
f 176/2/6 158/2/6 177/2/6
f 159/2/6 160/2/6 178/2/6
f 177/3/6 159/3/6 178/3/6
f 160/2/6 161/2/6 178/2/6
f 161/3/6 162/3/6 179/3/6
f 178/2/6 161/2/6 179/2/6
f 162/2/6 163/2/6 180/2/6
f 179/3/6 162/3/6 180/3/6
f 164/2/6 165/2/6 180/2/6
f 163/2/6 164/2/6 180/2/6
f 180/2/6 165/2/6 181/2/6
f 181/2/6 165/2/6 182/2/6
f 165/3/6 166/3/6 183/3/6
f 182/2/6 165/2/6 183/2/6
f 167/3/6 168/3/6 183/3/6
f 166/3/6 167/3/6 183/3/6
f 183/3/6 168/3/6 184/3/6
f 169/4/6 170/4/6 185/4/6
f 170/6/6 171/6/6 186/6/6
f 185/4/6 170/4/6 186/4/6
f 171/4/6 172/4/6 187/4/6
f 186/6/6 171/6/6 187/6/6
f 172/6/6 173/6/6 188/6/6
f 187/4/6 172/4/6 188/4/6
f 173/4/6 174/4/6 189/4/6
f 188/6/6 173/6/6 189/6/6
f 174/3/6 175/3/6 190/3/6
f 189/4/6 174/4/6 190/4/6
f 176/3/6 177/3/6 191/3/6
f 175/2/6 176/2/6 191/2/6
f 178/2/6 179/2/6 192/2/6
f 191/3/6 177/3/6 192/3/6
f 177/2/6 178/2/6 192/2/6
f 180/2/6 181/2/6 192/2/6
f 179/2/6 180/2/6 192/2/6
f 181/3/6 182/3/6 193/3/6
f 192/2/6 181/2/6 193/2/6
f 183/2/6 184/2/6 194/2/6
f 193/3/6 182/3/6 194/3/6
f 182/2/6 183/2/6 194/2/6
f 194/2/6 184/2/6 195/2/6
f 195/2/6 184/2/6 196/2/6
f 185/6/6 186/6/6 197/6/6
f 187/4/6 188/4/6 198/4/6
f 197/6/6 186/6/6 198/6/6
f 188/4/6 189/4/6 198/4/6
f 186/4/6 187/4/6 198/4/6
f 189/1/6 190/1/6 199/1/6
f 198/4/6 189/4/6 199/4/6
f 190/3/6 175/3/6 200/3/6
f 199/1/6 190/1/6 200/1/6
f 192/2/6 193/2/6 201/2/6
f 191/2/6 192/2/6 201/2/6
f 194/2/6 195/2/6 201/2/6
f 193/2/6 194/2/6 201/2/6
f 201/2/6 195/2/6 202/2/6
f 202/2/6 195/2/6 203/2/6
f 203/2/6 195/2/6 204/2/6
f 204/2/6 195/2/6 205/2/6
f 205/2/6 195/2/6 206/2/6
f 195/3/6 196/3/6 207/3/6
f 206/2/6 195/2/6 207/2/6
f 196/2/6 184/2/6 208/2/6
f 207/3/6 196/3/6 208/3/6
f 198/4/6 199/4/6 209/4/6
f 199/4/6 200/4/6 209/4/6
f 197/4/6 198/4/6 209/4/6
f 200/3/6 175/3/6 210/3/6
f 209/4/6 200/4/6 210/4/6
f 175/2/6 191/2/6 211/2/6
f 210/3/6 175/3/6 211/3/6
f 191/2/6 201/2/6 211/2/6
f 211/2/6 201/2/6 212/2/6
f 201/3/6 202/3/6 213/3/6
f 212/2/6 201/2/6 213/2/6
f 202/2/6 203/2/6 214/2/6
f 213/3/6 202/3/6 214/3/6
f 203/3/6 204/3/6 215/3/6
f 214/2/6 203/2/6 215/2/6
f 204/2/6 205/2/6 216/2/6
f 215/3/6 204/3/6 216/3/6
f 205/3/6 206/3/6 217/3/6
f 216/2/6 205/2/6 217/2/6
f 206/2/6 207/2/6 218/2/6
f 217/3/6 206/3/6 218/3/6
f 207/2/6 208/2/6 218/2/6
f 218/2/6 208/2/6 219/2/6
f 197/4/6 209/4/6 220/4/6
f 220/4/6 209/4/6 221/4/6
f 209/1/6 210/1/6 222/1/6
f 221/4/6 209/4/6 222/4/6
f 210/1/6 211/1/6 222/1/6
f 211/3/6 212/3/6 223/3/6
f 222/1/6 211/1/6 223/1/6
f 216/2/6 217/2/6 224/2/6
f 223/3/6 212/3/6 224/3/6
f 214/2/6 215/2/6 224/2/6
f 215/2/6 216/2/6 224/2/6
f 217/2/6 218/2/6 224/2/6
f 212/2/6 213/2/6 224/2/6
f 213/2/6 214/2/6 224/2/6
f 224/2/6 218/2/6 225/2/6
f 225/2/6 218/2/6 226/2/6
f 226/2/6 218/2/6 227/2/6
f 227/2/6 218/2/6 228/2/6
f 218/3/6 219/3/6 229/3/6
f 228/2/6 218/2/6 229/2/6
f 219/2/6 208/2/6 230/2/6
f 229/3/6 219/3/6 230/3/6
f 230/2/6 208/2/6 231/2/6
f 197/4/6 220/4/6 232/4/6
f 220/5/6 221/5/6 233/5/6
f 232/4/6 220/4/6 233/4/6
f 222/4/6 223/4/6 234/4/6
f 233/5/6 221/5/6 234/5/6
f 221/4/6 222/4/6 234/4/6
f 223/1/6 224/1/6 235/1/6
f 234/4/6 223/4/6 235/4/6
f 224/2/6 225/2/6 236/2/6
f 235/1/6 224/1/6 236/1/6
f 236/2/6 225/2/6 237/2/6
f 225/1/6 226/1/6 238/1/6
f 237/2/6 225/2/6 238/2/6
f 226/2/6 227/2/6 239/2/6
f 238/1/6 226/1/6 239/1/6
f 239/2/6 227/2/6 240/2/6
f 227/3/6 228/3/6 241/3/6
f 240/2/6 227/2/6 241/2/6
f 228/2/6 229/2/6 242/2/6
f 241/3/6 228/3/6 242/3/6
f 229/2/6 230/2/6 242/2/6
f 230/3/6 231/3/6 243/3/6
f 242/2/6 230/2/6 243/2/6
f 231/2/6 208/2/6 244/2/6
f 243/3/6 231/3/6 244/3/6
f 208/2/6 184/2/6 245/2/6
f 244/2/6 208/2/6 245/2/6
f 245/2/6 184/2/6 246/2/6
f 197/4/6 232/4/6 247/4/6
f 232/5/6 233/5/6 247/5/6
f 233/6/6 234/6/6 248/6/6
f 247/5/6 233/5/6 248/5/6
f 234/4/6 235/4/6 249/4/6
f 248/6/6 234/6/6 249/6/6
f 235/4/6 236/4/6 249/4/6
f 236/3/6 237/3/6 250/3/6
f 249/4/6 236/4/6 250/4/6
f 237/1/6 238/1/6 251/1/6
f 250/3/6 237/3/6 251/3/6
f 239/2/6 240/2/6 252/2/6
f 251/1/6 238/1/6 252/1/6
f 238/2/6 239/2/6 252/2/6
f 252/2/6 240/2/6 253/2/6
f 253/2/6 240/2/6 254/2/6
f 240/3/6 241/3/6 255/3/6
f 254/2/6 240/2/6 255/2/6
f 243/2/6 244/2/6 256/2/6
f 255/3/6 241/3/6 256/3/6
f 242/2/6 243/2/6 256/2/6
f 241/2/6 242/2/6 256/2/6
f 244/2/6 245/2/6 256/2/6
f 256/2/6 245/2/6 257/2/6
f 257/2/6 245/2/6 258/2/6
f 245/3/6 246/3/6 259/3/6
f 258/2/6 245/2/6 259/2/6
f 197/4/6 247/4/6 260/4/6
f 247/6/6 248/6/6 260/6/6
f 250/4/6 251/4/6 261/4/6
f 260/6/6 248/6/6 261/6/6
f 251/4/6 252/4/6 261/4/6
f 248/4/6 249/4/6 261/4/6
f 249/4/6 250/4/6 261/4/6
f 261/4/6 252/4/6 262/4/6
f 262/4/6 252/4/6 263/4/6
f 263/4/6 252/4/6 264/4/6
f 252/1/6 253/1/6 265/1/6
f 264/4/6 252/4/6 265/4/6
f 253/3/6 254/3/6 266/3/6
f 265/1/6 253/1/6 266/1/6
f 254/2/6 255/2/6 267/2/6
f 266/3/6 254/3/6 267/3/6
f 256/2/6 257/2/6 267/2/6
f 255/2/6 256/2/6 267/2/6
f 267/2/6 257/2/6 268/2/6
f 268/2/6 257/2/6 269/2/6
f 269/2/6 257/2/6 270/2/6
f 257/3/6 258/3/6 271/3/6
f 270/2/6 257/2/6 271/2/6
f 258/1/6 259/1/6 272/1/6
f 271/3/6 258/3/6 272/3/6
f 259/3/6 246/3/6 273/3/6
f 272/1/6 259/1/6 273/1/6
f 273/3/6 246/3/6 274/3/6
f 197/4/6 260/4/6 275/4/6
f 261/4/6 262/4/6 275/4/6
f 260/4/6 261/4/6 275/4/6
f 275/4/6 262/4/6 276/4/6
f 262/5/6 263/5/6 277/5/6
f 276/4/6 262/4/6 277/4/6
f 263/4/6 264/4/6 278/4/6
f 277/5/6 263/5/6 278/5/6
f 264/1/6 265/1/6 279/1/6
f 278/4/6 264/4/6 279/4/6
f 265/4/6 266/4/6 280/4/6
f 279/1/6 265/1/6 280/1/6
f 266/4/6 267/4/6 280/4/6
f 267/3/6 268/3/6 281/3/6
f 280/4/6 267/4/6 281/4/6
f 268/2/6 269/2/6 282/2/6
f 281/3/6 268/3/6 282/3/6
f 269/1/6 270/1/6 283/1/6
f 282/2/6 269/2/6 283/2/6
f 270/3/6 271/3/6 284/3/6
f 283/1/6 270/1/6 284/1/6
f 271/4/6 272/4/6 285/4/6
f 284/3/6 271/3/6 285/3/6
f 272/4/6 273/4/6 285/4/6
f 273/1/6 274/1/6 286/1/6
f 285/4/6 273/4/6 286/4/6
f 286/1/6 274/1/6 287/1/6
f 197/4/6 275/4/6 288/4/6
f 275/6/6 276/6/6 289/6/6
f 288/4/6 275/4/6 289/4/6
f 277/4/6 278/4/6 290/4/6
f 289/6/6 276/6/6 290/6/6
f 276/4/6 277/4/6 290/4/6
f 290/4/6 278/4/6 291/4/6
f 278/5/6 279/5/6 292/5/6
f 291/4/6 278/4/6 292/4/6
f 279/6/6 280/6/6 293/6/6
f 292/5/6 279/5/6 293/5/6
f 281/4/6 282/4/6 294/4/6
f 293/6/6 280/6/6 294/6/6
f 280/4/6 281/4/6 294/4/6
f 294/4/6 282/4/6 295/4/6
f 282/5/6 283/5/6 296/5/6
f 295/4/6 282/4/6 296/4/6
f 286/4/6 287/4/6 297/4/6
f 296/5/6 283/5/6 297/5/6
f 283/4/6 284/4/6 297/4/6
f 284/4/6 285/4/6 297/4/6
f 285/4/6 286/4/6 297/4/6
f 297/4/6 287/4/6 298/4/6
f 298/4/6 287/4/6 299/4/6
f 299/4/6 287/4/6 300/4/6
f 288/6/6 289/6/6 301/6/6
f 290/4/6 291/4/6 302/4/6
f 301/6/6 289/6/6 302/6/6
f 289/4/6 290/4/6 302/4/6
f 302/4/6 291/4/6 303/4/6
f 303/4/6 291/4/6 304/4/6
f 291/5/6 292/5/6 305/5/6
f 304/4/6 291/4/6 305/4/6
f 292/6/6 293/6/6 306/6/6
f 305/5/6 292/5/6 306/5/6
f 293/5/6 294/5/6 307/5/6
f 306/6/6 293/6/6 307/6/6
f 294/6/6 295/6/6 308/6/6
f 307/5/6 294/5/6 308/5/6
f 295/4/6 296/4/6 309/4/6
f 308/6/6 295/6/6 309/6/6
f 296/4/6 297/4/6 309/4/6
f 297/6/6 298/6/6 310/6/6
f 309/4/6 297/4/6 310/4/6
f 298/4/6 299/4/6 311/4/6
f 310/6/6 298/6/6 311/6/6
f 311/4/6 299/4/6 312/4/6
f 299/5/6 300/5/6 313/5/6
f 312/4/6 299/4/6 313/4/6
f 300/4/6 287/4/6 314/4/6
f 313/5/6 300/5/6 314/5/6
f 302/4/6 303/4/6 315/4/6
f 301/4/6 302/4/6 315/4/6
f 303/6/6 304/6/6 316/6/6
f 315/4/6 303/4/6 316/4/6
f 304/4/6 305/4/6 317/4/6
f 316/6/6 304/6/6 317/6/6
f 307/4/6 308/4/6 317/4/6
f 310/4/6 311/4/6 317/4/6
f 305/4/6 306/4/6 317/4/6
f 309/4/6 310/4/6 317/4/6
f 308/4/6 309/4/6 317/4/6
f 306/4/6 307/4/6 317/4/6
f 311/4/6 312/4/6 317/4/6
f 317/4/6 312/4/6 318/4/6
f 318/4/6 312/4/6 319/4/6
f 312/5/6 313/5/6 320/5/6
f 319/4/6 312/4/6 320/4/6
f 313/6/6 314/6/6 321/6/6
f 320/5/6 313/5/6 321/5/6
f 314/4/6 287/4/6 322/4/6
f 321/6/6 314/6/6 322/6/6
f 322/4/6 287/4/6 323/4/6
f 323/4/6 287/4/6 324/4/6
f 315/5/6 316/5/6 325/5/6
f 301/4/6 315/4/6 325/4/6
f 316/4/6 317/4/6 326/4/6
f 325/5/6 316/5/6 326/5/6
f 317/4/6 318/4/6 326/4/6
f 326/4/6 318/4/6 327/4/6
f 327/4/6 318/4/6 328/4/6
f 328/4/6 318/4/6 329/4/6
f 318/6/6 319/6/6 330/6/6
f 329/4/6 318/4/6 330/4/6
f 319/4/6 320/4/6 331/4/6
f 330/6/6 319/6/6 331/6/6
f 331/4/6 320/4/6 332/4/6
f 332/4/6 320/4/6 333/4/6
f 320/6/6 321/6/6 334/6/6
f 333/4/6 320/4/6 334/4/6
f 322/4/6 323/4/6 335/4/6
f 334/6/6 321/6/6 335/6/6
f 321/4/6 322/4/6 335/4/6
f 323/6/6 324/6/6 336/6/6
f 335/4/6 323/4/6 336/4/6
f 336/6/6 324/6/6 337/6/6
f 301/4/6 325/4/6 338/4/6
f 325/4/6 326/4/6 338/4/6
f 326/4/6 327/4/6 338/4/6
f 327/6/6 328/6/6 339/6/6
f 338/4/6 327/4/6 339/4/6
f 328/4/6 329/4/6 340/4/6
f 339/6/6 328/6/6 340/6/6
f 329/6/6 330/6/6 341/6/6
f 340/4/6 329/4/6 341/4/6
f 331/4/6 332/4/6 342/4/6
f 341/6/6 330/6/6 342/6/6
f 330/4/6 331/4/6 342/4/6
f 332/6/6 333/6/6 343/6/6
f 342/4/6 332/4/6 343/4/6
f 334/4/6 335/4/6 344/4/6
f 343/6/6 333/6/6 344/6/6
f 333/4/6 334/4/6 344/4/6
f 336/4/6 337/4/6 344/4/6
f 335/4/6 336/4/6 344/4/6
f 344/4/6 337/4/6 345/4/6
