# MagicaVoxel @ Ephtracy

# material
mtllib rock.mtl
usemtl palette

# normals
vn -1 0 0
vn 1 0 0
vn 0 0 1
vn 0 0 -1
vn 0 -1 0
vn 0 1 0

# texcoords
vt 0.982422 0.5
vt 0.986328 0.5
vt 0.990234 0.5

# verts
v -7 0 4
v -7 0 2
v -7 0 1
v -7 1 3
v -7 1 2
v -7 1 1
v -7 2 4
v -7 2 3
v -7 2 2
v -7 2 1
v -6 0 5
v -6 0 4
v -6 0 1
v -6 0 -0
v -6 1 5
v -6 1 4
v -6 1 1
v -6 2 5
v -6 2 4
v -6 2 3
v -6 2 2
v -6 2 1
v -6 2 -0
v -6 3 4
v -6 3 1
v -5 0 6
v -5 0 5
v -5 1 6
v -5 1 5
v -4 0 1
v -4 0 -0
v -4 1 1
v -4 1 -0
v -4 2 1
v -4 2 -0
v -3 0 6
v -3 0 5
v -3 1 6
v -3 1 5
v -2 2 4
v -2 2 2
v -2 2 1
v -2 3 4
v -2 3 2
v -2 3 1
v -1 0 5
v -1 0 4
v -1 0 2
v -1 0 1
v -1 1 5
v -1 1 4
v -1 1 2
v -1 2 5
v -1 2 1
v 0 0 4
v 0 0 2
v 0 1 4
v 0 1 2
v -5 0 6
v -5 1 6
v -4 0 6
v -4 1 6
v -3 0 6
v -3 1 6
v -6 0 5
v -6 1 5
v -6 2 5
v -5 0 5
v -5 1 5
v -5 2 5
v -4 1 5
v -3 0 5
v -3 1 5
v -3 2 5
v -2 0 5
v -2 1 5
v -2 2 5
v -1 0 5
v -1 1 5
v -1 2 5
v -7 0 4
v -7 2 4
v -6 0 4
v -6 1 4
v -6 2 4
v -6 3 4
v -5 2 4
v -4 2 4
v -4 3 4
v -3 2 4
v -3 3 4
v -2 2 4
v -2 3 4
v -1 0 4
v -1 1 4
v 0 0 4
v 0 1 4
v -1 0 2
v -1 1 2
v 0 0 2
v 0 1 2
v -7 0 1
v -7 1 1
v -7 2 1
v -6 0 1
v -6 1 1
v -6 2 1
v -6 3 1
v -4 0 1
v -4 1 1
v -4 2 1
v -3 1 1
v -3 2 1
v -3 3 1
v -2 2 1
v -2 3 1
v -1 0 1
v -1 2 1
v -6 0 -0
v -6 2 -0
v -5 0 -0
v -5 1 -0
v -4 0 -0
v -4 1 -0
v -4 2 -0
v -5 0 6
v -4 0 6
v -3 0 6
v -6 0 5
v -5 0 5
v -4 0 5
v -3 0 5
v -2 0 5
v -1 0 5
v -7 0 4
v -6 0 4
v -2 0 4
v -1 0 4
v 0 0 4
v -7 0 2
v -6 0 2
v -1 0 2
v 0 0 2
v -7 0 1
v -6 0 1
v -5 0 1
v -4 0 1
v -1 0 1
v -6 0 -0
v -5 0 -0
v -4 0 -0
v -5 1 6
v -4 1 6
v -3 1 6
v -5 1 5
v -4 1 5
v -3 1 5
v -1 1 4
v 0 1 4
v -1 1 2
v 0 1 2
v -6 2 5
v -5 2 5
v -3 2 5
v -2 2 5
v -1 2 5
v -7 2 4
v -6 2 4
v -5 2 4
v -4 2 4
v -3 2 4
v -2 2 4
v -7 2 3
v -6 2 3
v -7 2 2
v -6 2 2
v -2 2 2
v -7 2 1
v -6 2 1
v -4 2 1
v -2 2 1
v -1 2 1
v -6 2 -0
v -4 2 -0
v -6 3 4
v -4 3 4
v -3 3 4
v -2 3 4
v -5 3 3
v -4 3 3
v -3 3 3
v -5 3 2
v -4 3 2
v -3 3 2
v -2 3 2
v -6 3 1
v -3 3 1
v -2 3 1

# faces
f 4/1/1 2/1/1 1/1/1
f 5/3/1 3/3/1 2/3/1
f 5/1/1 2/1/1 4/1/1
f 6/3/1 3/3/1 5/3/1
f 7/1/1 4/1/1 1/1/1
f 8/3/1 5/3/1 4/3/1
f 8/1/1 4/1/1 7/1/1
f 9/1/1 6/1/1 5/1/1
f 9/3/1 5/3/1 8/3/1
f 10/1/1 6/1/1 9/1/1
f 15/1/1 12/1/1 11/1/1
f 16/1/1 12/1/1 15/1/1
f 17/1/1 14/1/1 13/1/1
f 18/2/1 16/2/1 15/2/1
f 19/2/1 16/2/1 18/2/1
f 22/1/1 14/1/1 17/1/1
f 23/1/1 14/1/1 22/1/1
f 24/1/1 21/1/1 20/1/1
f 24/1/1 22/1/1 21/1/1
f 24/1/1 20/1/1 19/1/1
f 25/1/1 22/1/1 24/1/1
f 28/1/1 27/1/1 26/1/1
f 29/1/1 27/1/1 28/1/1
f 30/3/2 31/3/2 32/3/2
f 32/3/2 31/3/2 33/3/2
f 32/1/2 33/1/2 34/1/2
f 34/1/2 33/1/2 35/1/2
f 36/3/2 37/3/2 38/3/2
f 38/3/2 37/3/2 39/3/2
f 40/1/2 41/1/2 43/1/2
f 41/2/2 42/2/2 44/2/2
f 43/1/2 41/1/2 44/1/2
f 44/2/2 42/2/2 45/2/2
f 46/2/2 47/2/2 50/2/2
f 50/2/2 47/2/2 51/2/2
f 48/1/2 49/1/2 52/1/2
f 50/1/2 51/1/2 53/1/2
f 51/1/2 52/1/2 53/1/2
f 52/1/2 49/1/2 54/1/2
f 53/1/2 52/1/2 54/1/2
f 55/1/2 56/1/2 57/1/2
f 57/1/2 56/1/2 58/1/2
f 61/1/3 60/1/3 59/1/3
f 62/1/3 60/1/3 61/1/3
f 63/3/3 62/3/3 61/3/3
f 64/3/3 62/3/3 63/3/3
f 68/1/3 66/1/3 65/1/3
f 69/2/3 67/2/3 66/2/3
f 69/1/3 66/1/3 68/1/3
f 70/2/3 67/2/3 69/2/3
f 71/1/3 70/1/3 69/1/3
f 73/1/3 70/1/3 71/1/3
f 74/1/3 70/1/3 73/1/3
f 75/1/3 73/1/3 72/1/3
f 76/3/3 74/3/3 73/3/3
f 76/1/3 73/1/3 75/1/3
f 77/3/3 74/3/3 76/3/3
f 78/2/3 76/2/3 75/2/3
f 79/1/3 77/1/3 76/1/3
f 79/2/3 76/2/3 78/2/3
f 80/1/3 77/1/3 79/1/3
f 83/1/3 82/1/3 81/1/3
f 84/1/3 82/1/3 83/1/3
f 85/1/3 82/1/3 84/1/3
f 87/1/3 86/1/3 85/1/3
f 88/1/3 86/1/3 87/1/3
f 89/1/3 86/1/3 88/1/3
f 90/3/3 89/3/3 88/3/3
f 91/3/3 89/3/3 90/3/3
f 92/1/3 91/1/3 90/1/3
f 93/1/3 91/1/3 92/1/3
f 96/1/3 95/1/3 94/1/3
f 97/1/3 95/1/3 96/1/3
f 98/1/4 99/1/4 100/1/4
f 100/1/4 99/1/4 101/1/4
f 102/3/4 103/3/4 105/3/4
f 103/1/4 104/1/4 106/1/4
f 105/3/4 103/3/4 106/3/4
f 106/1/4 104/1/4 107/1/4
f 107/1/4 108/1/4 111/1/4
f 109/1/4 110/1/4 112/1/4
f 110/3/4 111/3/4 112/3/4
f 111/1/4 108/1/4 113/1/4
f 112/3/4 111/3/4 113/3/4
f 113/1/4 108/1/4 114/1/4
f 112/1/4 113/1/4 115/1/4
f 113/2/4 114/2/4 115/2/4
f 115/2/4 114/2/4 116/2/4
f 109/1/4 112/1/4 117/1/4
f 112/1/4 115/1/4 117/1/4
f 117/1/4 115/1/4 118/1/4
f 119/1/4 120/1/4 121/1/4
f 121/1/4 120/1/4 122/1/4
f 121/3/4 122/3/4 123/3/4
f 122/1/4 120/1/4 124/1/4
f 123/3/4 122/3/4 124/3/4
f 124/1/4 120/1/4 125/1/4
f 130/1/5 127/1/5 126/1/5
f 131/3/5 128/3/5 127/3/5
f 131/1/5 127/1/5 130/1/5
f 132/3/5 128/3/5 131/3/5
f 136/1/5 130/1/5 129/1/5
f 136/1/5 131/1/5 130/1/5
f 136/1/5 133/1/5 132/1/5
f 136/1/5 132/1/5 131/1/5
f 137/2/5 134/2/5 133/2/5
f 137/1/5 133/1/5 136/1/5
f 138/2/5 134/2/5 137/2/5
f 140/1/5 136/1/5 135/1/5
f 140/1/5 139/1/5 138/1/5
f 140/1/5 138/1/5 137/1/5
f 140/1/5 137/1/5 136/1/5
f 141/1/5 139/1/5 140/1/5
f 142/1/5 139/1/5 141/1/5
f 143/1/5 139/1/5 142/1/5
f 144/3/5 141/3/5 140/3/5
f 145/1/5 142/1/5 141/1/5
f 145/3/5 141/3/5 144/3/5
f 146/1/5 142/1/5 145/1/5
f 147/1/5 142/1/5 146/1/5
f 148/1/5 142/1/5 147/1/5
f 149/1/5 146/1/5 145/1/5
f 150/3/5 147/3/5 146/3/5
f 150/1/5 146/1/5 149/1/5
f 151/3/5 147/3/5 150/3/5
f 152/1/6 153/1/6 155/1/6
f 153/3/6 154/3/6 156/3/6
f 155/1/6 153/1/6 156/1/6
f 156/3/6 154/3/6 157/3/6
f 158/1/6 159/1/6 160/1/6
f 160/1/6 159/1/6 161/1/6
f 162/2/6 163/2/6 168/2/6
f 163/1/6 164/1/6 169/1/6
f 168/2/6 163/2/6 169/2/6
f 169/1/6 164/1/6 170/1/6
f 164/3/6 165/3/6 171/3/6
f 170/1/6 164/1/6 171/1/6
f 165/1/6 166/1/6 172/1/6
f 171/3/6 165/3/6 172/3/6
f 167/1/6 168/1/6 173/1/6
f 173/1/6 168/1/6 174/1/6
f 173/3/6 174/3/6 175/3/6
f 175/3/6 174/3/6 176/3/6
f 172/1/6 166/1/6 177/1/6
f 175/1/6 176/1/6 178/1/6
f 178/1/6 176/1/6 179/1/6
f 177/1/6 166/1/6 181/1/6
f 181/1/6 166/1/6 182/1/6
f 179/1/6 180/1/6 183/1/6
f 183/1/6 180/1/6 184/1/6
f 185/1/6 186/1/6 189/1/6
f 186/3/6 187/3/6 190/3/6
f 189/1/6 186/1/6 190/1/6
f 187/1/6 188/1/6 191/1/6
f 190/3/6 187/3/6 191/3/6
f 189/3/6 190/3/6 192/3/6
f 185/1/6 189/1/6 192/1/6
f 190/1/6 191/1/6 193/1/6
f 192/3/6 190/3/6 193/3/6
f 191/1/6 188/1/6 194/1/6
f 193/1/6 191/1/6 194/1/6
f 194/1/6 188/1/6 195/1/6
f 192/1/6 193/1/6 196/1/6
f 185/1/6 192/1/6 196/1/6
f 193/1/6 194/1/6 196/1/6
f 194/2/6 195/2/6 197/2/6
f 196/1/6 194/1/6 197/1/6
f 197/2/6 195/2/6 198/2/6
