# MagicaVoxel @ Ephtracy

# material
mtllib sign.mtl
usemtl palette

# normals
vn -1 0 0
vn 1 0 0
vn 0 0 1
vn 0 0 -1
vn 0 -1 0
vn 0 1 0

# texcoords
vt 0.919922 0.5
vt 0.923828 0.5
vt 0.939453 0.5
vt 0.943359 0.5
vt 0.986328 0.5

# verts
v -12 12 1
v -12 12 -0
v -12 12 -1
v -12 13 1
v -12 13 -0
v -12 23 1
v -12 23 -0
v -12 24 1
v -12 24 -0
v -12 24 -1
v -11 11 1
v -11 11 -0
v -11 11 -1
v -11 12 1
v -11 12 -0
v -11 12 -1
v -11 24 1
v -11 24 -0
v -11 24 -1
v -11 25 1
v -11 25 -0
v -11 25 -1
v -2 0 1
v -2 0 -1
v -2 3 -0
v -2 3 -1
v -2 4 -0
v -2 4 -1
v -2 6 -0
v -2 6 -1
v -2 7 -0
v -2 7 -1
v -2 9 1
v -2 9 -0
v -2 10 1
v -2 10 -0
v -2 11 1
v -2 11 -1
v 2 0 1
v 2 0 -1
v 2 2 -0
v 2 2 -1
v 2 3 -0
v 2 3 -1
v 2 5 1
v 2 5 -0
v 2 6 1
v 2 6 -0
v 2 10 1
v 2 10 -0
v 2 11 1
v 2 11 -0
v 2 11 -1
v 11 11 1
v 11 11 -0
v 11 11 -1
v 11 12 1
v 11 12 -0
v 11 12 -1
v 11 24 1
v 11 24 -0
v 11 24 -1
v 11 25 1
v 11 25 -0
v 11 25 -1
v 12 12 1
v 12 12 -0
v 12 12 -1
v 12 13 1
v 12 13 -0
v 12 23 1
v 12 23 -0
v 12 24 1
v 12 24 -0
v 12 24 -1
v -12 12 1
v -12 13 1
v -12 23 1
v -12 24 1
v -11 11 1
v -11 12 1
v -11 13 1
v -11 23 1
v -11 24 1
v -11 25 1
v -10 11 1
v -10 12 1
v -10 13 1
v -10 14 1
v -10 15 1
v -10 22 1
v -10 23 1
v -10 24 1
v -10 25 1
v -9 13 1
v -9 14 1
v -9 15 1
v -9 17 1
v -9 18 1
v -9 19 1
v -9 20 1
v -9 21 1
v -9 22 1
v -9 23 1
v -8 14 1
v -8 15 1
v -8 16 1
v -8 18 1
v -8 19 1
v -8 20 1
v -8 21 1
v -7 14 1
v -7 15 1
v -7 16 1
v -7 17 1
v -7 19 1
v -7 20 1
v -7 21 1
v -7 22 1
v -6 14 1
v -6 16 1
v -6 19 1
v -6 21 1
v -6 22 1
v -6 23 1
v -5 14 1
v -5 16 1
v -5 17 1
v -5 18 1
v -5 19 1
v -5 21 1
v -5 22 1
v -5 23 1
v -4 16 1
v -4 17 1
v -4 18 1
v -4 19 1
v -4 20 1
v -3 15 1
v -3 16 1
v -3 19 1
v -3 20 1
v -2 0 1
v -2 9 1
v -2 10 1
v -2 11 1
v -2 14 1
v -2 15 1
v -2 16 1
v -2 17 1
v -2 19 1
v -2 21 1
v -1 1 1
v -1 2 1
v -1 8 1
v -1 9 1
v -1 10 1
v -1 14 1
v -1 15 1
v -1 16 1
v -1 17 1
v -1 18 1
v -1 19 1
v -1 21 1
v 0 1 1
v 0 2 1
v 0 3 1
v 0 8 1
v 0 9 1
v 0 15 1
v 0 16 1
v 0 18 1
v 0 19 1
v 1 2 1
v 1 3 1
v 1 5 1
v 1 6 1
v 1 10 1
v 1 11 1
v 1 14 1
v 1 15 1
v 1 16 1
v 1 18 1
v 1 19 1
v 1 20 1
v 1 21 1
v 2 0 1
v 2 5 1
v 2 6 1
v 2 10 1
v 2 11 1
v 2 14 1
v 2 15 1
v 2 17 1
v 2 18 1
v 2 19 1
v 2 20 1
v 2 21 1
v 3 13 1
v 3 14 1
v 3 15 1
v 3 17 1
v 3 19 1
v 3 20 1
v 4 13 1
v 4 14 1
v 4 15 1
v 4 16 1
v 4 17 1
v 4 19 1
v 4 20 1
v 5 14 1
v 5 15 1
v 5 16 1
v 5 17 1
v 5 18 1
v 5 19 1
v 5 20 1
v 5 21 1
v 6 14 1
v 6 15 1
v 6 16 1
v 6 17 1
v 6 18 1
v 6 19 1
v 6 20 1
v 6 21 1
v 7 14 1
v 7 15 1
v 7 16 1
v 7 17 1
v 7 20 1
v 7 21 1
v 8 14 1
v 8 17 1
v 8 18 1
v 8 20 1
v 8 21 1
v 8 22 1
v 8 23 1
v 9 13 1
v 9 14 1
v 9 17 1
v 9 18 1
v 9 20 1
v 9 22 1
v 9 23 1
v 10 11 1
v 10 12 1
v 10 13 1
v 10 14 1
v 10 22 1
v 10 23 1
v 10 24 1
v 10 25 1
v 11 11 1
v 11 12 1
v 11 13 1
v 11 23 1
v 11 24 1
v 11 25 1
v 12 12 1
v 12 13 1
v 12 23 1
v 12 24 1
v -12 12 -1
v -12 24 -1
v -11 11 -1
v -11 12 -1
v -11 24 -1
v -11 25 -1
v -2 0 -1
v -2 3 -1
v -2 4 -1
v -2 6 -1
v -2 7 -1
v -2 11 -1
v -1 0 -1
v -1 1 -1
v -1 3 -1
v -1 4 -1
v -1 5 -1
v -1 6 -1
v -1 7 -1
v -1 8 -1
v 0 0 -1
v 0 1 -1
v 0 2 -1
v 0 4 -1
v 0 5 -1
v 0 6 -1
v 0 7 -1
v 0 8 -1
v 1 1 -1
v 1 2 -1
v 1 3 -1
v 1 5 -1
v 1 6 -1
v 2 0 -1
v 2 2 -1
v 2 3 -1
v 2 11 -1
v 11 11 -1
v 11 12 -1
v 11 24 -1
v 11 25 -1
v 12 12 -1
v 12 24 -1
v -2 0 1
v 2 0 1
v -1 0 -0
v 0 0 -0
v -2 0 -1
v -1 0 -1
v 0 0 -1
v 2 0 -1
v -11 11 1
v -10 11 1
v -2 11 1
v 2 11 1
v 10 11 1
v 11 11 1
v -11 11 -0
v -10 11 -0
v 2 11 -0
v 10 11 -0
v 11 11 -0
v -11 11 -1
v -2 11 -1
v 2 11 -1
v 11 11 -1
v -12 12 1
v -11 12 1
v 11 12 1
v 12 12 1
v -12 12 -0
v -11 12 -0
v 11 12 -0
v 12 12 -0
v -12 12 -1
v -11 12 -1
v 11 12 -1
v 12 12 -1
v -12 24 1
v -11 24 1
v 11 24 1
v 12 24 1
v -12 24 -0
v -11 24 -0
v 11 24 -0
v 12 24 -0
v -12 24 -1
v -11 24 -1
v 11 24 -1
v 12 24 -1
v -11 25 1
v -10 25 1
v 10 25 1
v 11 25 1
v -11 25 -0
v -10 25 -0
v 10 25 -0
v 11 25 -0
v -11 25 -1
v 11 25 -1

# faces
f 4/3/1 2/3/1 1/3/1
f 5/4/1 3/4/1 2/4/1
f 5/3/1 2/3/1 4/3/1
f 6/4/1 5/4/1 4/4/1
f 7/4/1 3/4/1 5/4/1
f 7/4/1 5/4/1 6/4/1
f 8/3/1 7/3/1 6/3/1
f 9/4/1 3/4/1 7/4/1
f 9/3/1 7/3/1 8/3/1
f 10/4/1 3/4/1 9/4/1
f 14/3/1 12/3/1 11/3/1
f 15/4/1 13/4/1 12/4/1
f 15/3/1 12/3/1 14/3/1
f 16/4/1 13/4/1 15/4/1
f 20/3/1 18/3/1 17/3/1
f 21/4/1 19/4/1 18/4/1
f 21/3/1 18/3/1 20/3/1
f 22/4/1 19/4/1 21/4/1
f 25/4/1 24/4/1 23/4/1
f 26/4/1 24/4/1 25/4/1
f 27/4/1 25/4/1 23/4/1
f 27/3/1 26/3/1 25/3/1
f 28/3/1 26/3/1 27/3/1
f 29/4/1 27/4/1 23/4/1
f 29/4/1 28/4/1 27/4/1
f 30/4/1 28/4/1 29/4/1
f 31/4/1 29/4/1 23/4/1
f 31/3/1 30/3/1 29/3/1
f 32/3/1 30/3/1 31/3/1
f 33/4/1 31/4/1 23/4/1
f 33/4/1 32/4/1 31/4/1
f 34/4/1 32/4/1 33/4/1
f 35/3/1 34/3/1 33/3/1
f 36/4/1 32/4/1 34/4/1
f 36/3/1 34/3/1 35/3/1
f 37/4/1 36/4/1 35/4/1
f 38/4/1 32/4/1 36/4/1
f 38/4/1 36/4/1 37/4/1
f 39/4/2 40/4/2 41/4/2
f 41/4/2 40/4/2 42/4/2
f 39/4/2 41/4/2 43/4/2
f 41/3/2 42/3/2 43/3/2
f 43/3/2 42/3/2 44/3/2
f 39/4/2 43/4/2 45/4/2
f 43/4/2 44/4/2 45/4/2
f 45/4/2 44/4/2 46/4/2
f 45/3/2 46/3/2 47/3/2
f 46/4/2 44/4/2 48/4/2
f 47/3/2 46/3/2 48/3/2
f 47/4/2 48/4/2 49/4/2
f 48/4/2 44/4/2 50/4/2
f 49/4/2 48/4/2 50/4/2
f 49/3/2 50/3/2 51/3/2
f 50/4/2 44/4/2 52/4/2
f 51/3/2 50/3/2 52/3/2
f 52/4/2 44/4/2 53/4/2
f 54/3/2 55/3/2 57/3/2
f 55/4/2 56/4/2 58/4/2
f 57/3/2 55/3/2 58/3/2
f 58/4/2 56/4/2 59/4/2
f 60/3/2 61/3/2 63/3/2
f 61/4/2 62/4/2 64/4/2
f 63/3/2 61/3/2 64/3/2
f 64/4/2 62/4/2 65/4/2
f 66/3/2 67/3/2 69/3/2
f 67/4/2 68/4/2 70/4/2
f 69/3/2 67/3/2 70/3/2
f 69/4/2 70/4/2 71/4/2
f 70/4/2 68/4/2 72/4/2
f 71/4/2 70/4/2 72/4/2
f 71/3/2 72/3/2 73/3/2
f 72/4/2 68/4/2 74/4/2
f 73/3/2 72/3/2 74/3/2
f 74/4/2 68/4/2 75/4/2
f 81/3/3 77/3/3 76/3/3
f 82/4/3 78/4/3 77/4/3
f 82/3/3 77/3/3 81/3/3
f 83/3/3 79/3/3 78/3/3
f 83/4/3 78/4/3 82/4/3
f 84/3/3 79/3/3 83/3/3
f 86/3/3 81/3/3 80/3/3
f 87/4/3 82/4/3 81/4/3
f 87/3/3 81/3/3 86/3/3
f 88/3/3 83/3/3 82/3/3
f 88/4/3 82/4/3 87/4/3
f 89/3/3 83/3/3 88/3/3
f 90/3/3 83/3/3 89/3/3
f 91/3/3 83/3/3 90/3/3
f 92/4/3 84/4/3 83/4/3
f 92/3/3 83/3/3 91/3/3
f 93/3/3 85/3/3 84/3/3
f 93/4/3 84/4/3 92/4/3
f 94/3/3 85/3/3 93/3/3
f 95/3/3 88/3/3 87/3/3
f 95/3/3 89/3/3 88/3/3
f 96/2/3 90/2/3 89/2/3
f 96/3/3 89/3/3 95/3/3
f 97/1/3 91/1/3 90/1/3
f 97/2/3 90/2/3 96/2/3
f 98/1/3 91/1/3 97/1/3
f 99/1/3 91/1/3 98/1/3
f 100/1/3 91/1/3 99/1/3
f 101/1/3 91/1/3 100/1/3
f 102/1/3 91/1/3 101/1/3
f 103/3/3 92/3/3 91/3/3
f 103/1/3 91/1/3 102/1/3
f 103/3/3 93/3/3 92/3/3
f 104/3/3 93/3/3 103/3/3
f 105/1/3 96/1/3 95/1/3
f 105/1/3 97/1/3 96/1/3
f 106/5/3 98/5/3 97/5/3
f 106/1/3 97/1/3 105/1/3
f 107/5/3 98/5/3 106/5/3
f 108/1/3 99/1/3 98/1/3
f 108/5/3 100/5/3 99/5/3
f 109/1/3 101/1/3 100/1/3
f 109/5/3 100/5/3 108/5/3
f 110/5/3 102/5/3 101/5/3
f 110/1/3 101/1/3 109/1/3
f 111/1/3 104/1/3 103/1/3
f 111/5/3 102/5/3 110/5/3
f 111/1/3 103/1/3 102/1/3
f 112/1/3 105/1/3 95/1/3
f 112/5/3 106/5/3 105/5/3
f 113/1/3 107/1/3 106/1/3
f 113/5/3 106/5/3 112/5/3
f 114/5/3 98/5/3 107/5/3
f 114/1/3 107/1/3 113/1/3
f 115/1/3 109/1/3 108/1/3
f 115/5/3 98/5/3 114/5/3
f 115/1/3 108/1/3 98/1/3
f 116/5/3 110/5/3 109/5/3
f 116/1/3 109/1/3 115/1/3
f 117/1/3 111/1/3 110/1/3
f 117/5/3 110/5/3 116/5/3
f 118/1/3 104/1/3 111/1/3
f 118/1/3 111/1/3 117/1/3
f 119/1/3 104/1/3 118/1/3
f 120/1/3 114/1/3 113/1/3
f 120/1/3 116/1/3 115/1/3
f 120/1/3 115/1/3 114/1/3
f 120/1/3 118/1/3 117/1/3
f 120/1/3 112/1/3 95/1/3
f 120/1/3 113/1/3 112/1/3
f 120/1/3 117/1/3 116/1/3
f 121/1/3 118/1/3 120/1/3
f 122/1/3 118/1/3 121/1/3
f 123/2/3 119/2/3 118/2/3
f 123/1/3 118/1/3 122/1/3
f 124/1/3 104/1/3 119/1/3
f 124/2/3 119/2/3 123/2/3
f 125/3/3 93/3/3 104/3/3
f 125/1/3 104/1/3 124/1/3
f 126/1/3 120/1/3 95/1/3
f 126/5/3 121/5/3 120/5/3
f 127/1/3 122/1/3 121/1/3
f 127/5/3 121/5/3 126/5/3
f 128/1/3 122/1/3 127/1/3
f 129/1/3 122/1/3 128/1/3
f 130/5/3 123/5/3 122/5/3
f 130/1/3 122/1/3 129/1/3
f 131/1/3 124/1/3 123/1/3
f 131/5/3 123/5/3 130/5/3
f 132/2/3 125/2/3 124/2/3
f 132/1/3 124/1/3 131/1/3
f 133/3/3 93/3/3 125/3/3
f 133/2/3 125/2/3 132/2/3
f 134/1/3 127/1/3 126/1/3
f 134/5/3 128/5/3 127/5/3
f 135/1/3 129/1/3 128/1/3
f 135/5/3 128/5/3 134/5/3
f 136/5/3 130/5/3 129/5/3
f 136/1/3 129/1/3 135/1/3
f 137/1/3 132/1/3 131/1/3
f 137/5/3 130/5/3 136/5/3
f 137/1/3 131/1/3 130/1/3
f 137/1/3 133/1/3 132/1/3
f 138/1/3 133/1/3 137/1/3
f 139/1/3 134/1/3 126/1/3
f 139/1/3 135/1/3 134/1/3
f 139/1/3 136/1/3 135/1/3
f 139/1/3 137/1/3 136/1/3
f 140/1/3 137/1/3 139/1/3
f 141/5/3 138/5/3 137/5/3
f 141/1/3 137/1/3 140/1/3
f 142/1/3 133/1/3 138/1/3
f 142/5/3 138/5/3 141/5/3
f 146/4/3 87/4/3 86/4/3
f 147/1/3 126/1/3 95/1/3
f 147/1/3 139/1/3 126/1/3
f 148/5/3 140/5/3 139/5/3
f 148/1/3 139/1/3 147/1/3
f 149/1/3 141/1/3 140/1/3
f 149/5/3 140/5/3 148/5/3
f 149/1/3 142/1/3 141/1/3
f 150/1/3 142/1/3 149/1/3
f 151/1/3 142/1/3 150/1/3
f 152/1/3 133/1/3 142/1/3
f 152/1/3 142/1/3 151/1/3
f 153/4/3 144/4/3 143/4/3
f 154/4/3 144/4/3 153/4/3
f 155/4/3 144/4/3 154/4/3
f 156/3/3 145/3/3 144/3/3
f 156/4/3 144/4/3 155/4/3
f 157/4/3 146/4/3 145/4/3
f 157/3/3 145/3/3 156/3/3
f 158/5/3 148/5/3 147/5/3
f 158/1/3 147/1/3 95/1/3
f 159/1/3 149/1/3 148/1/3
f 159/5/3 148/5/3 158/5/3
f 160/5/3 150/5/3 149/5/3
f 160/1/3 149/1/3 159/1/3
f 161/1/3 151/1/3 150/1/3
f 161/5/3 150/5/3 160/5/3
f 162/1/3 151/1/3 161/1/3
f 163/5/3 152/5/3 151/5/3
f 163/1/3 151/1/3 162/1/3
f 164/1/3 133/1/3 152/1/3
f 164/5/3 152/5/3 163/5/3
f 165/4/3 153/4/3 143/4/3
f 165/3/3 154/3/3 153/3/3
f 166/4/3 155/4/3 154/4/3
f 166/3/3 154/3/3 165/3/3
f 167/4/3 155/4/3 166/4/3
f 168/3/3 156/3/3 155/3/3
f 168/4/3 155/4/3 167/4/3
f 169/4/3 157/4/3 156/4/3
f 169/3/3 156/3/3 168/3/3
f 170/1/3 160/1/3 159/1/3
f 170/1/3 159/1/3 158/1/3
f 170/1/3 162/1/3 161/1/3
f 170/1/3 161/1/3 160/1/3
f 171/1/3 162/1/3 170/1/3
f 172/5/3 163/5/3 162/5/3
f 172/1/3 162/1/3 171/1/3
f 173/1/3 164/1/3 163/1/3
f 173/5/3 163/5/3 172/5/3
f 174/3/3 167/3/3 166/3/3
f 174/4/3 166/4/3 165/4/3
f 175/4/3 168/4/3 167/4/3
f 175/3/3 167/3/3 174/3/3
f 175/4/3 169/4/3 168/4/3
f 176/4/3 169/4/3 175/4/3
f 177/4/3 169/4/3 176/4/3
f 178/4/3 146/4/3 157/4/3
f 178/4/3 169/4/3 177/4/3
f 178/4/3 157/4/3 169/4/3
f 179/4/3 87/4/3 146/4/3
f 179/4/3 146/4/3 178/4/3
f 180/1/3 158/1/3 95/1/3
f 180/1/3 170/1/3 158/1/3
f 181/5/3 171/5/3 170/5/3
f 181/1/3 170/1/3 180/1/3
f 182/1/3 173/1/3 172/1/3
f 182/5/3 171/5/3 181/5/3
f 182/1/3 172/1/3 171/1/3
f 183/1/3 173/1/3 182/1/3
f 184/1/3 164/1/3 173/1/3
f 184/1/3 173/1/3 183/1/3
f 185/1/3 164/1/3 184/1/3
f 186/1/3 133/1/3 164/1/3
f 186/1/3 164/1/3 185/1/3
f 187/4/3 165/4/3 143/4/3
f 187/4/3 174/4/3 165/4/3
f 187/4/3 176/4/3 175/4/3
f 187/4/3 175/4/3 174/4/3
f 188/3/3 177/3/3 176/3/3
f 188/4/3 176/4/3 187/4/3
f 189/4/3 178/4/3 177/4/3
f 189/3/3 177/3/3 188/3/3
f 190/3/3 179/3/3 178/3/3
f 190/4/3 178/4/3 189/4/3
f 191/4/3 87/4/3 179/4/3
f 191/3/3 179/3/3 190/3/3
f 192/1/3 180/1/3 95/1/3
f 192/5/3 181/5/3 180/5/3
f 193/1/3 183/1/3 182/1/3
f 193/5/3 181/5/3 192/5/3
f 193/1/3 182/1/3 181/1/3
f 194/1/3 183/1/3 193/1/3
f 195/5/3 184/5/3 183/5/3
f 195/1/3 183/1/3 194/1/3
f 196/1/3 185/1/3 184/1/3
f 196/5/3 184/5/3 195/5/3
f 197/5/3 186/5/3 185/5/3
f 197/1/3 185/1/3 196/1/3
f 198/1/3 133/1/3 186/1/3
f 198/5/3 186/5/3 197/5/3
f 199/3/3 95/3/3 87/3/3
f 199/1/3 192/1/3 95/1/3
f 200/2/3 193/2/3 192/2/3
f 200/1/3 192/1/3 199/1/3
f 201/5/3 194/5/3 193/5/3
f 201/2/3 193/2/3 200/2/3
f 202/1/3 196/1/3 195/1/3
f 202/5/3 194/5/3 201/5/3
f 202/1/3 195/1/3 194/1/3
f 203/5/3 197/5/3 196/5/3
f 203/1/3 196/1/3 202/1/3
f 204/1/3 198/1/3 197/1/3
f 204/5/3 197/5/3 203/5/3
f 205/3/3 199/3/3 87/3/3
f 205/2/3 200/2/3 199/2/3
f 206/1/3 202/1/3 201/1/3
f 206/2/3 200/2/3 205/2/3
f 206/1/3 201/1/3 200/1/3
f 206/1/3 203/1/3 202/1/3
f 206/1/3 204/1/3 203/1/3
f 207/1/3 204/1/3 206/1/3
f 208/1/3 204/1/3 207/1/3
f 209/1/3 204/1/3 208/1/3
f 210/1/3 204/1/3 209/1/3
f 211/1/3 198/1/3 204/1/3
f 211/1/3 204/1/3 210/1/3
f 212/1/3 206/1/3 205/1/3
f 212/5/3 207/5/3 206/5/3
f 213/1/3 208/1/3 207/1/3
f 213/5/3 207/5/3 212/5/3
f 214/5/3 209/5/3 208/5/3
f 214/1/3 208/1/3 213/1/3
f 215/1/3 210/1/3 209/1/3
f 215/5/3 209/5/3 214/5/3
f 216/1/3 210/1/3 215/1/3
f 217/5/3 211/5/3 210/5/3
f 217/1/3 210/1/3 216/1/3
f 218/1/3 198/1/3 211/1/3
f 218/5/3 211/5/3 217/5/3
f 219/1/3 133/1/3 198/1/3
f 219/1/3 198/1/3 218/1/3
f 220/1/3 212/1/3 205/1/3
f 220/1/3 213/1/3 212/1/3
f 221/5/3 214/5/3 213/5/3
f 221/1/3 213/1/3 220/1/3
f 222/1/3 216/1/3 215/1/3
f 222/5/3 214/5/3 221/5/3
f 222/1/3 215/1/3 214/1/3
f 223/1/3 216/1/3 222/1/3
f 224/5/3 217/5/3 216/5/3
f 224/1/3 216/1/3 223/1/3
f 225/1/3 218/1/3 217/1/3
f 225/5/3 217/5/3 224/5/3
f 226/5/3 219/5/3 218/5/3
f 226/1/3 218/1/3 225/1/3
f 227/1/3 133/1/3 219/1/3
f 227/5/3 219/5/3 226/5/3
f 228/1/3 220/1/3 205/1/3
f 228/5/3 221/5/3 220/5/3
f 229/1/3 222/1/3 221/1/3
f 229/5/3 221/5/3 228/5/3
f 230/5/3 223/5/3 222/5/3
f 230/1/3 222/1/3 229/1/3
f 231/1/3 224/1/3 223/1/3
f 231/5/3 223/5/3 230/5/3
f 231/1/3 227/1/3 226/1/3
f 231/1/3 226/1/3 225/1/3
f 231/1/3 225/1/3 224/1/3
f 232/1/3 227/1/3 231/1/3
f 233/1/3 133/1/3 227/1/3
f 233/1/3 227/1/3 232/1/3
f 234/1/3 230/1/3 229/1/3
f 234/1/3 232/1/3 231/1/3
f 234/1/3 229/1/3 228/1/3
f 234/1/3 231/1/3 230/1/3
f 234/1/3 228/1/3 205/1/3
f 235/1/3 232/1/3 234/1/3
f 236/1/3 232/1/3 235/1/3
f 237/5/3 233/5/3 232/5/3
f 237/1/3 232/1/3 236/1/3
f 238/1/3 133/1/3 233/1/3
f 238/5/3 233/5/3 237/5/3
f 239/1/3 133/1/3 238/1/3
f 240/3/3 93/3/3 133/3/3
f 240/1/3 133/1/3 239/1/3
f 241/3/3 205/3/3 87/3/3
f 241/1/3 234/1/3 205/1/3
f 242/5/3 235/5/3 234/5/3
f 242/1/3 234/1/3 241/1/3
f 243/1/3 236/1/3 235/1/3
f 243/5/3 235/5/3 242/5/3
f 244/5/3 237/5/3 236/5/3
f 244/1/3 236/1/3 243/1/3
f 245/1/3 239/1/3 238/1/3
f 245/5/3 237/5/3 244/5/3
f 245/1/3 238/1/3 237/1/3
f 246/2/3 240/2/3 239/2/3
f 246/1/3 239/1/3 245/1/3
f 247/3/3 93/3/3 240/3/3
f 247/2/3 240/2/3 246/2/3
f 248/4/3 87/4/3 191/4/3
f 249/3/3 242/3/3 241/3/3
f 249/4/3 87/4/3 248/4/3
f 249/3/3 241/3/3 87/3/3
f 250/3/3 242/3/3 249/3/3
f 251/1/3 246/1/3 245/1/3
f 251/3/3 242/3/3 250/3/3
f 251/1/3 243/1/3 242/1/3
f 251/1/3 244/1/3 243/1/3
f 251/1/3 245/1/3 244/1/3
f 252/3/3 247/3/3 246/3/3
f 252/1/3 246/1/3 251/1/3
f 253/3/3 93/3/3 247/3/3
f 253/3/3 247/3/3 252/3/3
f 254/4/3 94/4/3 93/4/3
f 254/3/3 93/3/3 253/3/3
f 255/4/3 94/4/3 254/4/3
f 256/3/3 249/3/3 248/3/3
f 257/4/3 250/4/3 249/4/3
f 257/3/3 249/3/3 256/3/3
f 258/3/3 252/3/3 251/3/3
f 258/4/3 250/4/3 257/4/3
f 258/3/3 253/3/3 252/3/3
f 258/3/3 251/3/3 250/3/3
f 259/4/3 254/4/3 253/4/3
f 259/3/3 253/3/3 258/3/3
f 260/3/3 255/3/3 254/3/3
f 260/4/3 254/4/3 259/4/3
f 261/3/3 255/3/3 260/3/3
f 262/3/3 258/3/3 257/3/3
f 263/4/3 259/4/3 258/4/3
f 263/3/3 258/3/3 262/3/3
f 264/3/3 260/3/3 259/3/3
f 264/4/3 259/4/3 263/4/3
f 265/3/3 260/3/3 264/3/3
f 266/4/4 267/4/4 269/4/4
f 269/4/4 267/4/4 270/4/4
f 268/4/4 269/4/4 277/4/4
f 269/4/4 270/4/4 277/4/4
f 270/4/4 271/4/4 277/4/4
f 272/4/4 273/4/4 278/4/4
f 278/4/4 273/4/4 279/4/4
f 273/3/4 274/3/4 280/3/4
f 279/4/4 273/4/4 280/4/4
f 274/4/4 275/4/4 281/4/4
f 280/3/4 274/3/4 281/3/4
f 281/4/4 275/4/4 282/4/4
f 275/3/4 276/3/4 283/3/4
f 282/4/4 275/4/4 283/4/4
f 276/4/4 277/4/4 284/4/4
f 283/3/4 276/3/4 284/3/4
f 284/4/4 277/4/4 285/4/4
f 278/3/4 279/3/4 286/3/4
f 279/4/4 280/4/4 287/4/4
f 286/3/4 279/3/4 287/3/4
f 280/4/4 281/4/4 287/4/4
f 287/4/4 281/4/4 288/4/4
f 281/3/4 282/3/4 289/3/4
f 288/4/4 281/4/4 289/4/4
f 282/4/4 283/4/4 290/4/4
f 289/3/4 282/3/4 290/3/4
f 283/4/4 284/4/4 290/4/4
f 290/4/4 284/4/4 291/4/4
f 284/3/4 285/3/4 292/3/4
f 291/4/4 284/4/4 292/4/4
f 285/4/4 277/4/4 293/4/4
f 292/3/4 285/3/4 293/3/4
f 287/3/4 288/3/4 294/3/4
f 286/4/4 287/4/4 294/4/4
f 288/4/4 289/4/4 295/4/4
f 294/3/4 288/3/4 295/3/4
f 289/4/4 290/4/4 295/4/4
f 295/4/4 290/4/4 296/4/4
f 290/3/4 291/3/4 297/3/4
f 296/4/4 290/4/4 297/4/4
f 291/4/4 292/4/4 298/4/4
f 297/3/4 291/3/4 298/3/4
f 292/4/4 293/4/4 298/4/4
f 286/4/4 294/4/4 299/4/4
f 294/4/4 295/4/4 299/4/4
f 295/3/4 296/3/4 300/3/4
f 299/4/4 295/4/4 300/4/4
f 296/4/4 297/4/4 301/4/4
f 300/3/4 296/3/4 301/3/4
f 297/4/4 298/4/4 301/4/4
f 293/4/4 277/4/4 302/4/4
f 301/4/4 298/4/4 302/4/4
f 298/4/4 293/4/4 302/4/4
f 277/4/4 271/4/4 302/4/4
f 302/4/4 271/4/4 303/4/4
f 303/4/4 271/4/4 304/4/4
f 304/4/4 271/4/4 305/4/4
f 305/4/4 271/4/4 306/4/4
f 304/4/4 305/4/4 307/4/4
f 307/4/4 305/4/4 308/4/4
f 311/4/5 310/4/5 309/4/5
f 312/4/5 310/4/5 311/4/5
f 313/4/5 311/4/5 309/4/5
f 314/3/5 312/3/5 311/3/5
f 314/4/5 311/4/5 313/4/5
f 315/4/5 310/4/5 312/4/5
f 315/3/5 312/3/5 314/3/5
f 316/4/5 310/4/5 315/4/5
f 323/3/5 318/3/5 317/3/5
f 324/4/5 319/4/5 318/4/5
f 324/3/5 318/3/5 323/3/5
f 325/4/5 321/4/5 320/4/5
f 326/3/5 322/3/5 321/3/5
f 326/4/5 321/4/5 325/4/5
f 327/3/5 322/3/5 326/3/5
f 328/4/5 324/4/5 323/4/5
f 329/4/5 319/4/5 324/4/5
f 329/4/5 324/4/5 328/4/5
f 330/4/5 326/4/5 325/4/5
f 330/4/5 327/4/5 326/4/5
f 331/4/5 327/4/5 330/4/5
f 336/3/5 333/3/5 332/3/5
f 337/3/5 333/3/5 336/3/5
f 338/3/5 335/3/5 334/3/5
f 339/3/5 335/3/5 338/3/5
f 340/4/5 337/4/5 336/4/5
f 341/4/5 337/4/5 340/4/5
f 342/4/5 339/4/5 338/4/5
f 343/4/5 339/4/5 342/4/5
f 344/3/6 345/3/6 348/3/6
f 348/3/6 345/3/6 349/3/6
f 346/3/6 347/3/6 350/3/6
f 350/3/6 347/3/6 351/3/6
f 348/4/6 349/4/6 352/4/6
f 352/4/6 349/4/6 353/4/6
f 350/4/6 351/4/6 354/4/6
f 354/4/6 351/4/6 355/4/6
f 356/3/6 357/3/6 360/3/6
f 357/4/6 358/4/6 361/4/6
f 360/3/6 357/3/6 361/3/6
f 358/3/6 359/3/6 362/3/6
f 361/4/6 358/4/6 362/4/6
f 362/3/6 359/3/6 363/3/6
f 360/4/6 361/4/6 364/4/6
f 361/4/6 362/4/6 364/4/6
f 362/4/6 363/4/6 364/4/6
f 364/4/6 363/4/6 365/4/6
