# MagicaVoxel @ Ephtracy

# material
mtllib Tree2.mtl
usemtl palette

# normals
vn -1 0 0
vn 1 0 0
vn 0 0 1
vn 0 0 -1
vn 0 -1 0
vn 0 1 0

# texcoords
vt 0.908203 0.5
vt 0.912109 0.5

# verts
v -3 6 0.5
v -3 6 -1.5
v -3 8 0.5
v -3 8 -1.5
v -2 4 0.5
v -2 4 -1.5
v -2 5 2.5
v -2 5 0.5
v -2 6 0.5
v -2 6 -1.5
v -2 6 -2.5
v -2 7 2.5
v -2 7 1.5
v -2 7 -1.5
v -2 7 -2.5
v -2 8 1.5
v -2 8 0.5
v -2 8 -0.5
v -2 9 0.5
v -2 9 -0.5
v -1 3 1.5
v -1 3 0.5
v -1 4 2.5
v -1 4 1.5
v -1 4 0.5
v -1 5 2.5
v -1 5 1.5
v -1 5 0.5
v -1 5 -1.5
v -1 5 -2.5
v -1 6 -1.5
v -1 6 -2.5
v -1 7 2.5
v -1 7 1.5
v -1 7 -1.5
v -1 7 -2.5
v -1 8 2.5
v -1 8 1.5
v -1 8 0.5
v -1 8 -1.5
v -1 8 -2.5
v -1 9 1.5
v -1 9 0.5
v 0 0 2.5
v 0 0 1.5
v 0 3 1.5
v 0 3 0.5
v 0 3 -0.5
v 0 4 2.5
v 0 4 1.5
v 0 4 0.5
v 0 4 -0.5
v 0 8 -0.5
v 0 8 -1.5
v 0 9 -0.5
v 0 9 -1.5
v 0 4 2.5
v 0 4 1.5
v 0 4 0.5
v 0 5 1.5
v 0 5 0.5
v 0 6 2.5
v 0 6 1.5
v 0 7 2.5
v 0 7 1.5
v 0 8 2.5
v 0 8 1.5
v 1 0 2.5
v 1 0 1.5
v 1 3 1.5
v 1 3 0.5
v 1 3 -0.5
v 1 4 2.5
v 1 4 0.5
v 1 4 -0.5
v 1 6 2.5
v 1 6 1.5
v 1 6 -1.5
v 1 6 -2.5
v 1 7 2.5
v 1 7 1.5
v 1 7 -0.5
v 1 7 -1.5
v 1 8 1.5
v 1 8 -0.5
v 1 8 -1.5
v 1 8 -2.5
v 1 9 1.5
v 1 9 -1.5
v 2 4 0.5
v 2 4 -0.5
v 2 5 0.5
v 2 5 -0.5
v 2 5 -1.5
v 2 5 -2.5
v 2 6 -1.5
v 2 6 -2.5
v 2 7 1.5
v 2 7 -0.5
v 2 8 1.5
v 2 8 -0.5
v 3 4 -0.5
v 3 4 -1.5
v 3 5 1.5
v 3 5 -0.5
v 3 7 1.5
v 3 7 -1.5
v -2 5 2.5
v -2 7 2.5
v -1 4 2.5
v -1 5 2.5
v -1 7 2.5
v -1 8 2.5
v 0 0 2.5
v 0 4 2.5
v 0 6 2.5
v 0 7 2.5
v 0 8 2.5
v 1 0 2.5
v 1 4 2.5
v 1 6 2.5
v 1 7 2.5
v -2 7 1.5
v -2 8 1.5
v -1 3 1.5
v -1 4 1.5
v -1 7 1.5
v -1 8 1.5
v -1 9 1.5
v 0 3 1.5
v 0 4 1.5
v 0 5 1.5
v 0 6 1.5
v 0 7 1.5
v 0 8 1.5
v 1 6 1.5
v 1 7 1.5
v 1 8 1.5
v 1 9 1.5
v 2 7 1.5
v 2 8 1.5
v 3 5 1.5
v 3 7 1.5
v -3 6 0.5
v -3 8 0.5
v -2 4 0.5
v -2 5 0.5
v -2 6 0.5
v -2 8 0.5
v -2 9 0.5
v -1 4 0.5
v -1 5 0.5
v -1 8 0.5
v -1 9 0.5
v 0 4 0.5
v 0 5 0.5
v 1 4 0.5
v 2 4 0.5
v 2 5 0.5
v 2 4 -0.5
v 2 5 -0.5
v 3 4 -0.5
v 3 5 -0.5
v 0 0 1.5
v 0 3 1.5
v 1 0 1.5
v 1 3 1.5
v -1 3 0.5
v -1 4 0.5
v 0 3 0.5
v 0 4 0.5
v -2 8 -0.5
v -2 9 -0.5
v 0 3 -0.5
v 0 4 -0.5
v 0 8 -0.5
v 0 9 -0.5
v 1 3 -0.5
v 1 4 -0.5
v 1 7 -0.5
v 1 8 -0.5
v 2 7 -0.5
v 2 8 -0.5
v -3 6 -1.5
v -3 8 -1.5
v -2 4 -1.5
v -2 6 -1.5
v -2 7 -1.5
v -1 5 -1.5
v -1 6 -1.5
v -1 7 -1.5
v -1 8 -1.5
v 0 8 -1.5
v 0 9 -1.5
v 1 6 -1.5
v 1 7 -1.5
v 1 8 -1.5
v 1 9 -1.5
v 2 5 -1.5
v 2 6 -1.5
v 3 4 -1.5
v 3 7 -1.5
v -2 6 -2.5
v -2 7 -2.5
v -1 5 -2.5
v -1 6 -2.5
v -1 7 -2.5
v -1 8 -2.5
v 1 6 -2.5
v 1 8 -2.5
v 2 5 -2.5
v 2 6 -2.5
v 0 0 2.5
v 1 0 2.5
v 0 0 1.5
v 1 0 1.5
v -1 3 1.5
v 0 3 1.5
v 1 3 1.5
v -1 3 0.5
v 0 3 0.5
v 1 3 0.5
v 0 3 -0.5
v 1 3 -0.5
v -1 4 2.5
v 0 4 2.5
v -1 4 1.5
v 0 4 1.5
v -2 4 0.5
v -1 4 0.5
v 0 4 0.5
v 1 4 0.5
v 2 4 0.5
v 0 4 -0.5
v 1 4 -0.5
v 2 4 -0.5
v 3 4 -0.5
v -2 4 -1.5
v 3 4 -1.5
v -2 5 2.5
v -1 5 2.5
v -1 5 1.5
v 0 5 1.5
v 3 5 1.5
v -2 5 0.5
v -1 5 0.5
v 0 5 0.5
v 2 5 0.5
v 2 5 -0.5
v 3 5 -0.5
v -1 5 -1.5
v 2 5 -1.5
v -1 5 -2.5
v 2 5 -2.5
v 0 6 2.5
v 1 6 2.5
v 0 6 1.5
v 1 6 1.5
v -3 6 0.5
v -2 6 0.5
v -3 6 -1.5
v -2 6 -1.5
v -1 6 -1.5
v -2 6 -2.5
v -1 6 -2.5
v 0 4 2.5
v 1 4 2.5
v 0 4 1.5
v 0 4 0.5
v 1 4 0.5
v 1 6 -1.5
v 2 6 -1.5
v 1 6 -2.5
v 2 6 -2.5
v -2 7 2.5
v -1 7 2.5
v 0 7 2.5
v 1 7 2.5
v -2 7 1.5
v -1 7 1.5
v 0 7 1.5
v 1 7 1.5
v 2 7 1.5
v 3 7 1.5
v 1 7 -0.5
v 2 7 -0.5
v -2 7 -1.5
v -1 7 -1.5
v 1 7 -1.5
v 3 7 -1.5
v -2 7 -2.5
v -1 7 -2.5
v -1 8 2.5
v 0 8 2.5
v -2 8 1.5
v -1 8 1.5
v 0 8 1.5
v 1 8 1.5
v 2 8 1.5
v -3 8 0.5
v -2 8 0.5
v -1 8 0.5
v -2 8 -0.5
v 0 8 -0.5
v 1 8 -0.5
v 2 8 -0.5
v -3 8 -1.5
v -1 8 -1.5
v 0 8 -1.5
v 1 8 -1.5
v -1 8 -2.5
v 1 8 -2.5
v -1 9 1.5
v 1 9 1.5
v -2 9 0.5
v -1 9 0.5
v -2 9 -0.5
v 0 9 -0.5
v 0 9 -1.5
v 1 9 -1.5

# faces
f 3/2/1 2/2/1 1/2/1
f 4/2/1 2/2/1 3/2/1
f 8/2/1 6/2/1 5/2/1
f 9/2/1 6/2/1 8/2/1
f 9/2/1 8/2/1 7/2/1
f 10/2/1 6/2/1 9/2/1
f 12/2/1 9/2/1 7/2/1
f 13/2/1 9/2/1 12/2/1
f 14/2/1 11/2/1 10/2/1
f 15/2/1 11/2/1 14/2/1
f 16/2/1 9/2/1 13/2/1
f 17/2/1 9/2/1 16/2/1
f 19/2/1 18/2/1 17/2/1
f 20/2/1 18/2/1 19/2/1
f 24/1/1 22/1/1 21/1/1
f 25/1/1 22/1/1 24/1/1
f 26/2/1 24/2/1 23/2/1
f 27/1/1 25/1/1 24/1/1
f 27/2/1 24/2/1 26/2/1
f 28/1/1 25/1/1 27/1/1
f 31/2/1 30/2/1 29/2/1
f 32/2/1 30/2/1 31/2/1
f 37/2/1 34/2/1 33/2/1
f 38/2/1 34/2/1 37/2/1
f 40/2/1 36/2/1 35/2/1
f 41/2/1 36/2/1 40/2/1
f 42/2/1 39/2/1 38/2/1
f 43/2/1 39/2/1 42/2/1
f 46/1/1 45/1/1 44/1/1
f 49/1/1 46/1/1 44/1/1
f 50/1/1 46/1/1 49/1/1
f 51/2/1 48/2/1 47/2/1
f 52/2/1 48/2/1 51/2/1
f 55/2/1 54/2/1 53/2/1
f 56/2/1 54/2/1 55/2/1
f 57/2/2 58/2/2 60/2/2
f 58/1/2 59/1/2 60/1/2
f 60/1/2 59/1/2 61/1/2
f 57/2/2 60/2/2 62/2/2
f 62/2/2 60/2/2 63/2/2
f 64/2/2 65/2/2 66/2/2
f 66/2/2 65/2/2 67/2/2
f 68/1/2 69/1/2 70/1/2
f 68/1/2 70/1/2 73/1/2
f 70/1/2 71/1/2 73/1/2
f 71/2/2 72/2/2 74/2/2
f 73/1/2 71/1/2 74/1/2
f 74/2/2 72/2/2 75/2/2
f 76/2/2 77/2/2 80/2/2
f 80/2/2 77/2/2 81/2/2
f 78/2/2 79/2/2 83/2/2
f 82/2/2 83/2/2 85/2/2
f 83/2/2 79/2/2 86/2/2
f 85/2/2 83/2/2 86/2/2
f 86/2/2 79/2/2 87/2/2
f 84/2/2 85/2/2 88/2/2
f 85/2/2 86/2/2 88/2/2
f 88/2/2 86/2/2 89/2/2
f 90/2/2 91/2/2 92/2/2
f 92/2/2 91/2/2 93/2/2
f 94/2/2 95/2/2 96/2/2
f 96/2/2 95/2/2 97/2/2
f 98/2/2 99/2/2 100/2/2
f 100/2/2 99/2/2 101/2/2
f 102/2/2 103/2/2 105/2/2
f 104/2/2 105/2/2 106/2/2
f 105/2/2 103/2/2 107/2/2
f 106/2/2 105/2/2 107/2/2
f 111/2/3 109/2/3 108/2/3
f 112/2/3 109/2/3 111/2/3
f 115/2/3 111/2/3 110/2/3
f 115/2/3 113/2/3 112/2/3
f 115/2/3 112/2/3 111/2/3
f 116/2/3 113/2/3 115/2/3
f 117/2/3 113/2/3 116/2/3
f 118/2/3 113/2/3 117/2/3
f 119/1/3 115/1/3 114/1/3
f 120/1/3 115/1/3 119/1/3
f 121/2/3 117/2/3 116/2/3
f 122/2/3 117/2/3 121/2/3
f 127/2/3 124/2/3 123/2/3
f 128/2/3 124/2/3 127/2/3
f 130/1/3 126/1/3 125/1/3
f 131/1/3 126/1/3 130/1/3
f 135/2/3 129/2/3 128/2/3
f 136/2/3 133/2/3 132/2/3
f 137/2/3 135/2/3 134/2/3
f 138/2/3 129/2/3 135/2/3
f 138/2/3 135/2/3 137/2/3
f 139/2/3 129/2/3 138/2/3
f 140/2/3 137/2/3 136/2/3
f 140/2/3 138/2/3 137/2/3
f 141/2/3 138/2/3 140/2/3
f 142/2/3 136/2/3 132/2/3
f 142/2/3 140/2/3 136/2/3
f 143/2/3 140/2/3 142/2/3
f 148/2/3 145/2/3 144/2/3
f 149/2/3 145/2/3 148/2/3
f 151/2/3 147/2/3 146/2/3
f 152/2/3 147/2/3 151/2/3
f 153/2/3 150/2/3 149/2/3
f 154/2/3 150/2/3 153/2/3
f 157/2/3 156/2/3 155/2/3
f 158/2/3 156/2/3 157/2/3
f 159/2/3 156/2/3 158/2/3
f 162/2/3 161/2/3 160/2/3
f 163/2/3 161/2/3 162/2/3
f 164/1/4 165/1/4 166/1/4
f 166/1/4 165/1/4 167/1/4
f 168/1/4 169/1/4 170/1/4
f 170/1/4 169/1/4 171/1/4
f 172/2/4 173/2/4 176/2/4
f 176/2/4 173/2/4 177/2/4
f 174/2/4 175/2/4 178/2/4
f 178/2/4 175/2/4 179/2/4
f 180/2/4 181/2/4 182/2/4
f 182/2/4 181/2/4 183/2/4
f 184/2/4 185/2/4 187/2/4
f 187/2/4 185/2/4 188/2/4
f 186/2/4 187/2/4 189/2/4
f 189/2/4 187/2/4 190/2/4
f 188/2/4 185/2/4 191/2/4
f 191/2/4 185/2/4 192/2/4
f 193/2/4 194/2/4 197/2/4
f 197/2/4 194/2/4 198/2/4
f 186/2/4 189/2/4 199/2/4
f 195/2/4 196/2/4 200/2/4
f 186/2/4 199/2/4 201/2/4
f 199/2/4 200/2/4 201/2/4
f 200/2/4 196/2/4 202/2/4
f 201/2/4 200/2/4 202/2/4
f 203/2/4 204/2/4 206/2/4
f 206/2/4 204/2/4 207/2/4
f 205/2/4 206/2/4 209/2/4
f 207/2/4 208/2/4 209/2/4
f 206/2/4 207/2/4 209/2/4
f 209/2/4 208/2/4 210/2/4
f 205/2/4 209/2/4 211/2/4
f 211/2/4 209/2/4 212/2/4
f 215/1/5 214/1/5 213/1/5
f 216/1/5 214/1/5 215/1/5
f 220/1/5 218/1/5 217/1/5
f 220/1/5 219/1/5 218/1/5
f 221/1/5 219/1/5 220/1/5
f 222/1/5 219/1/5 221/1/5
f 223/2/5 222/2/5 221/2/5
f 224/2/5 222/2/5 223/2/5
f 227/2/5 226/2/5 225/2/5
f 228/2/5 226/2/5 227/2/5
f 234/2/5 231/2/5 230/2/5
f 234/2/5 230/2/5 229/2/5
f 235/2/5 233/2/5 232/2/5
f 236/2/5 233/2/5 235/2/5
f 238/2/5 234/2/5 229/2/5
f 238/2/5 237/2/5 236/2/5
f 238/2/5 236/2/5 235/2/5
f 238/2/5 235/2/5 234/2/5
f 239/2/5 237/2/5 238/2/5
f 242/2/5 241/2/5 240/2/5
f 245/2/5 242/2/5 240/2/5
f 246/2/5 242/2/5 245/2/5
f 247/2/5 244/2/5 243/2/5
f 248/2/5 244/2/5 247/2/5
f 249/2/5 244/2/5 248/2/5
f 250/2/5 244/2/5 249/2/5
f 253/2/5 252/2/5 251/2/5
f 254/2/5 252/2/5 253/2/5
f 257/2/5 256/2/5 255/2/5
f 258/2/5 256/2/5 257/2/5
f 261/2/5 260/2/5 259/2/5
f 262/2/5 260/2/5 261/2/5
f 264/2/5 263/2/5 262/2/5
f 265/2/5 263/2/5 264/2/5
f 266/1/6 267/1/6 268/1/6
f 268/1/6 267/1/6 269/1/6
f 269/1/6 267/1/6 270/1/6
f 271/2/6 272/2/6 273/2/6
f 273/2/6 272/2/6 274/2/6
f 275/2/6 276/2/6 279/2/6
f 279/2/6 276/2/6 280/2/6
f 277/2/6 278/2/6 281/2/6
f 281/2/6 278/2/6 282/2/6
f 283/2/6 284/2/6 286/2/6
f 285/2/6 286/2/6 289/2/6
f 286/2/6 284/2/6 290/2/6
f 289/2/6 286/2/6 290/2/6
f 287/2/6 288/2/6 291/2/6
f 291/2/6 288/2/6 292/2/6
f 293/2/6 294/2/6 296/2/6
f 296/2/6 294/2/6 297/2/6
f 295/2/6 296/2/6 301/2/6
f 301/2/6 296/2/6 302/2/6
f 300/2/6 301/2/6 303/2/6
f 298/2/6 299/2/6 305/2/6
f 305/2/6 299/2/6 306/2/6
f 303/2/6 304/2/6 307/2/6
f 300/2/6 303/2/6 307/2/6
f 307/2/6 304/2/6 308/2/6
f 308/2/6 304/2/6 309/2/6
f 309/2/6 310/2/6 311/2/6
f 308/2/6 309/2/6 311/2/6
f 311/2/6 310/2/6 312/2/6
f 313/2/6 314/2/6 316/2/6
f 315/2/6 316/2/6 317/2/6
f 316/2/6 314/2/6 318/2/6
f 317/2/6 316/2/6 318/2/6
f 318/2/6 314/2/6 319/2/6
f 319/2/6 314/2/6 320/2/6
