# MagicaVoxel @ Ephtracy

# material
mtllib Tree3.mtl
usemtl palette

# normals
vn -1 0 0
vn 1 0 0
vn 0 0 1
vn 0 0 -1
vn 0 -1 0
vn 0 1 0

# texcoords
vt 0.908203 0.5
vt 0.912109 0.5

# verts
v -2.5 6 3
v -2.5 6 -0
v -2.5 8 3
v -2.5 8 -0
v -1.5 4 2
v -1.5 4 -1
v -1.5 5 3
v -1.5 5 2
v -1.5 6 3
v -1.5 6 -0
v -1.5 6 -1
v -1.5 6 -2
v -1.5 8 2
v -1.5 8 -0
v -1.5 8 -2
v -1.5 9 2
v -1.5 9 -0
v -0.5 0 -0
v -0.5 0 -1
v -0.5 4 -0
v -0.5 4 -1
v -0.5 5 -1
v -0.5 5 -2
v -0.5 6 -1
v -0.5 6 -2
v -0.5 6 -3
v -0.5 8 -0
v -0.5 8 -2
v -0.5 8 -3
v -0.5 9 -0
v -0.5 9 -2
v 0.5 4 -0
v 0.5 4 -1
v 0.5 5 -0
v 0.5 5 -1
v 0.5 5 -2
v 0.5 5 -3
v 0.5 6 -2
v 0.5 6 -3
v 1.5 4 -1
v 1.5 4 -2
v 1.5 5 -1
v 1.5 5 -2
v -0.5 4 2
v -0.5 4 1
v -0.5 4 -0
v -0.5 4 -1
v -0.5 5 3
v -0.5 5 2
v -0.5 5 1
v -0.5 5 -0
v -0.5 5 -1
v -0.5 6 3
v -0.5 6 2
v 0.5 0 -0
v 0.5 0 -1
v 0.5 3 -0
v 0.5 3 -1
v 0.5 4 1
v 0.5 4 -0
v 0.5 5 1
v 0.5 5 -0
v 0.5 6 3
v 0.5 6 2
v 0.5 7 2
v 0.5 7 1
v 0.5 7 -2
v 0.5 7 -3
v 0.5 8 3
v 0.5 8 2
v 0.5 8 1
v 0.5 8 -2
v 0.5 8 -3
v 0.5 9 2
v 0.5 9 -2
v 1.5 3 -0
v 1.5 3 -1
v 1.5 4 -1
v 1.5 5 2
v 1.5 5 -0
v 1.5 5 -1
v 1.5 5 -2
v 1.5 5 -3
v 1.5 6 1
v 1.5 6 -0
v 1.5 7 2
v 1.5 7 1
v 1.5 7 -1
v 1.5 7 -2
v 1.5 7 -3
v 1.5 8 -1
v 1.5 8 -2
v 2.5 4 -1
v 2.5 4 -2
v 2.5 5 -0
v 2.5 5 -1
v 2.5 6 1
v 2.5 6 -0
v 2.5 7 -1
v 2.5 7 -2
v 2.5 8 1
v 2.5 8 -1
v -2.5 6 3
v -2.5 8 3
v -1.5 5 3
v -1.5 6 3
v -0.5 5 3
v -0.5 6 3
v 0.5 6 3
v 0.5 8 3
v -1.5 4 2
v -1.5 5 2
v -1.5 8 2
v -1.5 9 2
v -0.5 4 2
v -0.5 5 2
v -0.5 6 2
v 0.5 5 2
v 0.5 6 2
v 0.5 7 2
v 0.5 8 2
v 0.5 9 2
v 1.5 5 2
v 1.5 7 2
v -0.5 4 1
v -0.5 5 1
v 0.5 4 1
v 0.5 5 1
v 0.5 7 1
v 0.5 8 1
v 1.5 6 1
v 1.5 7 1
v 2.5 6 1
v 2.5 8 1
v -0.5 0 -0
v -0.5 4 -0
v 0.5 0 -0
v 0.5 3 -0
v 0.5 4 -0
v 0.5 5 -0
v 1.5 3 -0
v 1.5 5 -0
v 1.5 6 -0
v 2.5 5 -0
v 2.5 6 -0
v 1.5 4 -1
v 1.5 5 -1
v 2.5 4 -1
v 2.5 5 -1
v -2.5 6 -0
v -2.5 8 -0
v -1.5 6 -0
v -1.5 8 -0
v -1.5 9 -0
v -0.5 4 -0
v -0.5 5 -0
v -0.5 8 -0
v -0.5 9 -0
v 0.5 4 -0
v 0.5 5 -0
v -1.5 4 -1
v -1.5 6 -1
v -0.5 0 -1
v -0.5 4 -1
v -0.5 5 -1
v -0.5 6 -1
v 0.5 0 -1
v 0.5 3 -1
v 0.5 4 -1
v 0.5 5 -1
v 1.5 3 -1
v 1.5 4 -1
v 1.5 5 -1
v 1.5 7 -1
v 1.5 8 -1
v 2.5 7 -1
v 2.5 8 -1
v -1.5 6 -2
v -1.5 8 -2
v -0.5 5 -2
v -0.5 6 -2
v -0.5 8 -2
v -0.5 9 -2
v 0.5 5 -2
v 0.5 6 -2
v 0.5 7 -2
v 0.5 8 -2
v 0.5 9 -2
v 1.5 4 -2
v 1.5 5 -2
v 1.5 7 -2
v 1.5 8 -2
v 2.5 4 -2
v 2.5 7 -2
v -0.5 6 -3
v -0.5 8 -3
v 0.5 5 -3
v 0.5 6 -3
v 0.5 7 -3
v 0.5 8 -3
v 1.5 5 -3
v 1.5 7 -3
v -0.5 0 -0
v 0.5 0 -0
v -0.5 0 -1
v 0.5 0 -1
v 0.5 3 -0
v 1.5 3 -0
v 0.5 3 -1
v 1.5 3 -1
v -1.5 4 2
v -0.5 4 2
v -0.5 4 1
v 0.5 4 1
v -0.5 4 -0
v 0.5 4 -0
v -1.5 4 -1
v -0.5 4 -1
v 1.5 4 -1
v 2.5 4 -1
v 1.5 4 -2
v 2.5 4 -2
v -1.5 5 3
v -0.5 5 3
v -1.5 5 2
v -0.5 5 2
v 0.5 5 2
v 1.5 5 2
v -0.5 5 1
v 0.5 5 1
v -0.5 5 -0
v 0.5 5 -0
v 1.5 5 -0
v 2.5 5 -0
v -0.5 5 -1
v 0.5 5 -1
v 1.5 5 -1
v 2.5 5 -1
v -0.5 5 -2
v 0.5 5 -2
v 1.5 5 -2
v 0.5 5 -3
v 1.5 5 -3
v -2.5 6 3
v -1.5 6 3
v -0.5 6 3
v 0.5 6 3
v -0.5 6 2
v 0.5 6 2
v 1.5 6 1
v 2.5 6 1
v -2.5 6 -0
v -1.5 6 -0
v 1.5 6 -0
v 2.5 6 -0
v -1.5 6 -1
v -0.5 6 -1
v -1.5 6 -2
v -0.5 6 -2
v 0.5 6 -2
v -0.5 6 -3
v 0.5 6 -3
v -0.5 4 -0
v 0.5 4 -0
v -0.5 4 -1
v 0.5 4 -1
v 0.5 7 2
v 1.5 7 2
v 0.5 7 1
v 1.5 7 1
v 1.5 7 -1
v 2.5 7 -1
v 0.5 7 -2
v 1.5 7 -2
v 2.5 7 -2
v 0.5 7 -3
v 1.5 7 -3
v -2.5 8 3
v 0.5 8 3
v -1.5 8 2
v 0.5 8 2
v 0.5 8 1
v 2.5 8 1
v -2.5 8 -0
v -1.5 8 -0
v -0.5 8 -0
v 1.5 8 -1
v 2.5 8 -1
v -1.5 8 -2
v -0.5 8 -2
v 0.5 8 -2
v 1.5 8 -2
v -0.5 8 -3
v 0.5 8 -3
v -1.5 9 2
v 0.5 9 2
v -1.5 9 -0
v -0.5 9 -0
v -0.5 9 -2
v 0.5 9 -2

# faces
f 3/2/1 2/2/1 1/2/1
f 4/2/1 2/2/1 3/2/1
f 8/2/1 6/2/1 5/2/1
f 9/2/1 8/2/1 7/2/1
f 10/2/1 6/2/1 8/2/1
f 10/2/1 8/2/1 9/2/1
f 11/2/1 6/2/1 10/2/1
f 14/2/1 12/2/1 11/2/1
f 14/2/1 11/2/1 10/2/1
f 15/2/1 12/2/1 14/2/1
f 16/2/1 14/2/1 13/2/1
f 17/2/1 14/2/1 16/2/1
f 20/1/1 19/1/1 18/1/1
f 21/1/1 19/1/1 20/1/1
f 24/2/1 23/2/1 22/2/1
f 25/2/1 23/2/1 24/2/1
f 28/2/1 26/2/1 25/2/1
f 29/2/1 26/2/1 28/2/1
f 30/2/1 28/2/1 27/2/1
f 31/2/1 28/2/1 30/2/1
f 34/1/1 33/1/1 32/1/1
f 35/1/1 33/1/1 34/1/1
f 38/2/1 37/2/1 36/2/1
f 39/2/1 37/2/1 38/2/1
f 42/2/1 41/2/1 40/2/1
f 43/2/1 41/2/1 42/2/1
f 44/2/2 45/2/2 49/2/2
f 49/2/2 45/2/2 50/2/2
f 46/2/2 47/2/2 51/2/2
f 51/2/2 47/2/2 52/2/2
f 48/2/2 49/2/2 53/2/2
f 53/2/2 49/2/2 54/2/2
f 55/1/2 56/1/2 57/1/2
f 57/1/2 56/1/2 58/1/2
f 59/2/2 60/2/2 61/2/2
f 61/2/2 60/2/2 62/2/2
f 63/2/2 64/2/2 65/2/2
f 65/2/2 66/2/2 69/2/2
f 63/2/2 65/2/2 69/2/2
f 69/2/2 66/2/2 70/2/2
f 70/2/2 66/2/2 71/2/2
f 67/2/2 68/2/2 72/2/2
f 72/2/2 68/2/2 73/2/2
f 70/2/2 71/2/2 74/2/2
f 71/2/2 72/2/2 74/2/2
f 74/2/2 72/2/2 75/2/2
f 76/1/2 77/1/2 78/1/2
f 76/1/2 78/1/2 80/1/2
f 80/1/2 78/1/2 81/1/2
f 79/2/2 80/2/2 84/2/2
f 84/2/2 80/2/2 85/2/2
f 79/2/2 84/2/2 86/2/2
f 86/2/2 84/2/2 87/2/2
f 82/2/2 83/2/2 89/2/2
f 89/2/2 83/2/2 90/2/2
f 88/2/2 89/2/2 91/2/2
f 91/2/2 89/2/2 92/2/2
f 93/2/2 94/2/2 96/2/2
f 95/2/2 96/2/2 98/2/2
f 96/2/2 94/2/2 99/2/2
f 97/2/2 98/2/2 99/2/2
f 98/2/2 96/2/2 99/2/2
f 99/2/2 94/2/2 100/2/2
f 97/2/2 99/2/2 101/2/2
f 101/2/2 99/2/2 102/2/2
f 106/2/3 104/2/3 103/2/3
f 107/2/3 106/2/3 105/2/3
f 108/2/3 104/2/3 106/2/3
f 108/2/3 106/2/3 107/2/3
f 109/2/3 104/2/3 108/2/3
f 110/2/3 104/2/3 109/2/3
f 115/2/3 112/2/3 111/2/3
f 116/2/3 112/2/3 115/2/3
f 118/1/3 117/1/3 116/1/3
f 119/1/3 117/1/3 118/1/3
f 121/2/3 114/2/3 113/2/3
f 122/2/3 114/2/3 121/2/3
f 123/2/3 120/2/3 119/2/3
f 123/2/3 119/2/3 118/2/3
f 124/2/3 120/2/3 123/2/3
f 127/2/3 126/2/3 125/2/3
f 128/2/3 126/2/3 127/2/3
f 132/2/3 130/2/3 129/2/3
f 133/2/3 132/2/3 131/2/3
f 134/2/3 130/2/3 132/2/3
f 134/2/3 132/2/3 133/2/3
f 137/1/3 136/1/3 135/1/3
f 138/1/3 136/1/3 137/1/3
f 139/1/3 136/1/3 138/1/3
f 141/1/3 140/1/3 139/1/3
f 141/1/3 139/1/3 138/1/3
f 142/1/3 140/1/3 141/1/3
f 144/2/3 143/2/3 142/2/3
f 145/2/3 143/2/3 144/2/3
f 148/2/3 147/2/3 146/2/3
f 149/2/3 147/2/3 148/2/3
f 150/2/4 151/2/4 152/2/4
f 152/2/4 151/2/4 153/2/4
f 153/2/4 154/2/4 157/2/4
f 157/2/4 154/2/4 158/2/4
f 155/2/4 156/2/4 159/2/4
f 159/2/4 156/2/4 160/2/4
f 161/2/4 162/2/4 164/2/4
f 164/2/4 162/2/4 165/2/4
f 165/2/4 162/2/4 166/2/4
f 163/1/4 164/1/4 167/1/4
f 167/1/4 164/1/4 168/1/4
f 168/1/4 164/1/4 169/1/4
f 169/1/4 170/1/4 171/1/4
f 168/1/4 169/1/4 171/1/4
f 171/1/4 170/1/4 172/1/4
f 172/1/4 170/1/4 173/1/4
f 174/2/4 175/2/4 176/2/4
f 176/2/4 175/2/4 177/2/4
f 178/2/4 179/2/4 181/2/4
f 181/2/4 179/2/4 182/2/4
f 180/2/4 181/2/4 184/2/4
f 184/2/4 181/2/4 185/2/4
f 182/2/4 183/2/4 187/2/4
f 187/2/4 183/2/4 188/2/4
f 186/2/4 187/2/4 191/2/4
f 191/2/4 187/2/4 192/2/4
f 189/2/4 190/2/4 193/2/4
f 190/2/4 191/2/4 193/2/4
f 193/2/4 191/2/4 194/2/4
f 195/2/4 196/2/4 198/2/4
f 198/2/4 196/2/4 199/2/4
f 199/2/4 196/2/4 200/2/4
f 197/2/4 198/2/4 201/2/4
f 198/2/4 199/2/4 201/2/4
f 201/2/4 199/2/4 202/2/4
f 205/1/5 204/1/5 203/1/5
f 206/1/5 204/1/5 205/1/5
f 209/1/5 208/1/5 207/1/5
f 210/1/5 208/1/5 209/1/5
f 213/2/5 212/2/5 211/2/5
f 215/2/5 213/2/5 211/2/5
f 215/2/5 214/2/5 213/2/5
f 216/2/5 214/2/5 215/2/5
f 217/2/5 215/2/5 211/2/5
f 218/2/5 215/2/5 217/2/5
f 221/2/5 220/2/5 219/2/5
f 222/2/5 220/2/5 221/2/5
f 225/2/5 224/2/5 223/2/5
f 226/2/5 224/2/5 225/2/5
f 229/1/5 227/1/5 226/1/5
f 230/2/5 228/2/5 227/2/5
f 230/1/5 227/1/5 229/1/5
f 232/2/5 228/2/5 230/2/5
f 233/2/5 228/2/5 232/2/5
f 235/2/5 232/2/5 231/2/5
f 236/2/5 232/2/5 235/2/5
f 237/2/5 234/2/5 233/2/5
f 238/2/5 234/2/5 237/2/5
f 239/2/5 236/2/5 235/2/5
f 239/2/5 237/2/5 236/2/5
f 240/2/5 237/2/5 239/2/5
f 241/2/5 237/2/5 240/2/5
f 242/2/5 241/2/5 240/2/5
f 243/2/5 241/2/5 242/2/5
f 248/2/5 247/2/5 246/2/5
f 249/2/5 247/2/5 248/2/5
f 252/2/5 245/2/5 244/2/5
f 253/2/5 245/2/5 252/2/5
f 254/2/5 251/2/5 250/2/5
f 255/2/5 251/2/5 254/2/5
f 258/2/5 257/2/5 256/2/5
f 259/2/5 257/2/5 258/2/5
f 261/2/5 260/2/5 259/2/5
f 262/2/5 260/2/5 261/2/5
f 263/1/6 264/1/6 265/1/6
f 265/1/6 264/1/6 266/1/6
f 267/2/6 268/2/6 269/2/6
f 269/2/6 268/2/6 270/2/6
f 271/2/6 272/2/6 274/2/6
f 274/2/6 272/2/6 275/2/6
f 273/2/6 274/2/6 276/2/6
f 276/2/6 274/2/6 277/2/6
f 278/2/6 279/2/6 280/2/6
f 280/2/6 279/2/6 281/2/6
f 278/2/6 280/2/6 284/2/6
f 284/2/6 280/2/6 285/2/6
f 282/2/6 283/2/6 287/2/6
f 287/2/6 283/2/6 288/2/6
f 285/2/6 286/2/6 289/2/6
f 289/2/6 286/2/6 290/2/6
f 282/2/6 287/2/6 291/2/6
f 291/2/6 287/2/6 292/2/6
f 290/2/6 291/2/6 293/2/6
f 293/2/6 291/2/6 294/2/6
f 295/2/6 296/2/6 297/2/6
f 297/2/6 296/2/6 298/2/6
f 298/2/6 296/2/6 299/2/6
f 299/2/6 296/2/6 300/2/6
